<?xml version="1.0" encoding="utf-8"?><!DOCTYPE svg PUBLIC "-//W3C//DTD SVG 1.1//EN" "http://www.w3.org/Graphics/SVG/1.1/DTD/svg11.dtd"><svg version="1.1" id="Layer_1" xmlns="http://www.w3.org/2000/svg" xmlns:xlink="http://www.w3.org/1999/xlink" x="0px" y="0px" width="721.813px" height="210.68px" viewBox="0 0 721.813 210.68" enable-background="new 0 0 721.813 210.68" xml:space="preserve"><g id="Layer_1_1_"><g><path fill="#C8252C" d="M63.716,48.333c-0.026,3.779-1.376,7.021-4.05,9.721c-2.675,2.675-5.915,4.012-9.721,4.012h-2.816v16.588 H36.097V23.416h13.848c3.806,0.023,7.046,1.376,9.721,4.05c2.674,2.675,4.024,5.915,4.05,9.721V48.333z M52.684,37.223 c0-0.771-0.27-1.428-0.81-1.968s-1.196-0.811-1.967-0.811H47.13v16.587h2.777c0.771,0,1.427-0.271,1.967-0.812 s0.81-1.194,0.81-1.967V37.223z"/><path fill="#C8252C" d="M91.374,67.659v11.07h-24.34V31.09h11.071v36.567L91.374,67.659L91.374,67.659z"/><path fill="#C8252C" d="M107.614,29.932c3.806,0,7.059,1.352,9.759,4.051c2.7,2.7,4.05,5.967,4.05,9.799V...99c-0.027,2.858-0.395,5.728-1.211,8.456c-0.856,2.7-2.022,5.368-3.944,7.411 c0.946-2.591,1.378-5.229,1.529-7.852c0.155-2.62,0.038-5.224-0.3-7.788c-0.342-2.567-0.878-5.103-1.582-7.596 c-0.353-1.248-0.73-2.49-1.166-3.719c-0.401-1.215-0.892-2.43-1.37-3.804c-1.845-5.371-2.711-11.137-2.325-16.814 c0.198-2.835,0.695-5.645,1.541-8.331C645.082,4.842,646.178,2.219,647.872,0z"/><path display="inline" fill="#C8252C" d="M639.377,34.397c1.694,2.219,2.79,4.842,3.672,7.511c0.849,2.689,1.344,5.499,1.542,8.334 c0.386,5.678-0.481,11.443-2.325,16.814c-0.479,1.374-0.969,2.588-1.369,3.803c-0.437,1.227-0.814,2.47-1.168,3.717 c-0.703,2.495-1.239,5.029-1.58,7.596c-0.338,2.566-0.456,5.168-0.301,7.788c0.151,2.623,0.583,5.263,1.529,7.854 c-1.922-2.043-3.088-4.711-3.944-7.41c-0.816-2.73-1.184-5.598-1.211-8.456c-0.025-2.862,0.315-5.715,0.901-8.499 c0.291-1.396,0.67-2.763,1.077-4.12c0.428-1.375,0.935-2.691,1.336-3.888c1.684-4.907,2.782-9.988,3.137-15.188 C641.009,45.054,640.729,39.736,639.377,34.397z"/></g></svg> 