<?xml version="1.0" encoding="utf-8"?>
<!-- Generator: Adobe Illustrator 16.0.3, SVG Export Plug-In . SVG Version: 6.00 Build 0)  -->
<!DOCTYPE svg PUBLIC "-//W3C//DTD SVG 1.1//EN" "http://www.w3.org/Graphics/SVG/1.1/DTD/svg11.dtd">
<svg version="1.1" id="Layer_1" xmlns="http://www.w3.org/2000/svg" xmlns:xlink="http://www.w3.org/1999/xlink" x="0px" y="0px"
	 width="361.08px" height="105.391px" viewBox="0 0 361.08 105.391" enable-background="new 0 0 361.08 105.391"
	 xml:space="preserve">
<g id="Layer_1_1_">
	<g>
		<path fill="#ED1C24" d="M30.519,24.192c-0.013,1.89-0.688,3.51-2.024,4.86c-1.337,1.337-2.958,2.006-4.86,2.006h-1.408v8.294
			h-5.517V11.734h6.925c1.902,0.012,3.522,0.688,4.86,2.025c1.337,1.337,2.012,2.958,2.024,4.859V24.192L30.519,24.192z
			 M25.003,18.637c0-0.387-0.135-0.714-0.404-0.984c-0.271-0.27-0.599-0.405-0.983-0.405h-1.39v8.293h1.39
			c0.385,0,0.713-0.135,0.983-0.405c0.27-0.271,0.404-0.598,0.404-0.983V18.637z"/>
		<path fill="#ED1C24" d="M44.349,33.855v5.535h-12.17V15.57h5.535v18.284L44.349,33.855L44.349,33.855z"/>
		<path fill="#ED1C24" d="M52.468,14.991c1.903,0,3.53,0.676,4.881,2.025c1.35,1.35,2.024,2.982,2.024,4.898v17.454h-5.536v-5.534
			h-2.758v5.534h-5.535V21.916c0-1.916,0.676-3.549,2.025-4.898C48.919,15.667,50.554,14.991,52.468,14.991z M53.838,28.3v-6.385
			c0-0.385-0.135-0.714-0.405-0.983c-0.27-0.271-0.592-0.405-0.965-0.405c-0.385,0-0.713,0.135-0.982,0.405
			c-0.271,0.27-0.405,0.598-0.405,0.983V28.3H53.838z"/>
		<path fill="#ED1C24" d="M75.226,15.59v23.761H69.71v-5.883l-2.777-6.48v12.364h-5.516V15.59h5.516v0.135l2.777,6.48v-6.614
			L75.226,15.59L75.226,15.59z"/>
		<path fill="#ED1C24" d="M82.69,36.651c0,0.771-0.27,1.427-0.81,1.967s-1.188,0.811-1.948,0.811c-0.771,0-1.427-0.271-1.967-0.811
			c-0.539-0.54-0.81-1.195-0.81-1.967c0-0.76,0.271-1.408,0.81-1.948c0.54-0.54,1.196-0.81,1.967-0.81c0.76,0,1.408,0.27,1.948,0.81
			S82.69,35.893,82.69,36.651z"/>
		<path fill="#ED1C24" d="M90.579,17.248v8.293h5.536v5.535h-5.536v2.778h6.635v5.535h-12.17V11.714h12.17v5.534H90.579
			L90.579,17.248z"/>
		<path fill="#ED1C24" d="M105.854,14.991c1.904,0,3.529,0.676,4.879,2.025c1.351,1.35,2.025,2.982,2.025,4.898v17.454h-5.535
			v-5.534h-2.759v5.534h-5.536V21.916c0-1.916,0.676-3.549,2.025-4.898C102.306,15.667,103.938,14.991,105.854,14.991z
			 M107.224,28.3v-6.385c0-0.385-0.135-0.714-0.404-0.983c-0.27-0.271-0.592-0.405-0.965-0.405c-0.385,0-0.713,0.135-0.983,0.405
			c-0.271,0.27-0.405,0.598-0.405,0.983V28.3H107.224z"/>
		<path fill="#ED1C24" d="M128.016,21.125h-4.186V39.37h-5.517V21.125h-4.107v-5.534h13.81V21.125z"/>
		<path fill="#ED1C24" d="M134.265,36.651c0,0.771-0.27,1.427-0.81,1.967s-1.189,0.811-1.948,0.811
			c-0.771,0-1.427-0.271-1.968-0.811s-0.81-1.195-0.81-1.967c0-0.76,0.27-1.408,0.81-1.948s1.196-0.81,1.968-0.81
			c0.758,0,1.408,0.27,1.948,0.81S134.265,35.893,134.265,36.651z"/>
		<path fill="#ED1C24" d="M143.908,11.154c1.852,0.064,3.427,0.765,4.726,2.103c1.285,1.337,1.929,2.938,1.929,4.802v2.835h-5.517
			v-2.835c0-0.373-0.135-0.694-0.405-0.964c-0.27-0.271-0.598-0.406-0.982-0.406c-0.334,0-0.624,0.103-0.868,0.308
			c-0.038,0.026-0.071,0.059-0.096,0.098h-0.021c-0.025,0.025-0.052,0.058-0.077,0.096h-0.02c-0.026,0.039-0.045,0.071-0.058,0.096
			v0.02h-0.021c-0.026,0.039-0.045,0.07-0.058,0.097c0.012-0.013,0.012-0.007,0,0.019c-0.026,0.039-0.045,0.071-0.059,0.097
			l-0.02,0.058l-0.021,0.077l-0.02,0.077l-0.021,0.058c0,0.014-0.006,0.039-0.02,0.077v0.057c0,0.053,0,0.097,0,0.137v6.113
			c0,0.387,0.135,0.715,0.405,0.984c0.27,0.257,0.591,0.385,0.964,0.385l0.251,0.02c1.852,0.064,3.426,0.765,4.726,2.103
			c1.285,1.338,1.929,2.938,1.929,4.803c0,1.902-0.669,3.529-2.007,4.88c-1.35,1.35-2.982,2.024-4.898,2.024h-6.905v-5.535h6.905
			c0.385,0,0.713-0.135,0.982-0.405c0.271-0.271,0.405-0.593,0.405-0.964c0-0.387-0.135-0.715-0.405-0.984
			c-0.27-0.271-0.598-0.406-0.982-0.406h-0.271c-1.839-0.077-3.4-0.777-4.687-2.102c-1.286-1.337-1.937-2.932-1.948-4.783v-6.153
			c0.013-1.902,0.688-3.522,2.025-4.859s2.958-2.013,4.859-2.025h0.272v0.004H143.908z"/>
		<path fill="#ED1C24" d="M158.934,14.991c1.902,0,3.528,0.676,4.879,2.025c1.35,1.35,2.024,2.982,2.024,4.898v17.454h-5.535v-5.534
			h-2.759v5.534h-5.535V21.916c0-1.916,0.675-3.549,2.025-4.898C155.383,15.667,157.018,14.991,158.934,14.991z M160.302,28.3
			v-6.385c0-0.385-0.136-0.714-0.405-0.983c-0.271-0.271-0.592-0.405-0.965-0.405c-0.385,0-0.713,0.135-0.982,0.405
			c-0.271,0.27-0.406,0.598-0.406,0.983V28.3H160.302z"/>
		<path fill="#ED1C24" d="M184.835,15.59l-5.381,23.78h-6.422l-5.323-23.78h5.536l3.164,14.349l2.411-14.349H184.835z"/>
		<path fill="#ED1C24" d="M199.88,33.064c-0.013,1.903-0.694,3.522-2.045,4.861c-1.338,1.337-2.958,2.006-4.86,2.006
			c-1.891,0-3.511-0.668-4.859-2.006c-1.352-1.324-2.032-2.933-2.045-4.822V21.858c0.012-1.904,0.693-3.517,2.045-4.842
			c1.35-1.337,2.969-2.006,4.859-2.006c1.902,0,3.522,0.668,4.86,2.006c1.351,1.338,2.031,2.958,2.045,4.86V33.064z M194.363,21.916
			c-0.014-0.385-0.148-0.714-0.406-0.983c-0.27-0.271-0.597-0.405-0.983-0.405c-0.386,0-0.714,0.135-0.982,0.405
			c-0.271,0.27-0.406,0.598-0.406,0.983v11.11c0,0.385,0.136,0.713,0.406,0.983c0.27,0.27,0.597,0.405,0.982,0.405
			c0.387,0,0.715-0.135,0.983-0.405c0.271-0.271,0.406-0.599,0.406-0.983V21.916z"/>
		<path fill="#ED1C24" d="M216.39,39.37h-5.517l-0.945-6.653l-0.019-0.251c-0.065-0.387-0.251-0.714-0.561-0.983
			c-0.309-0.27-0.648-0.406-1.021-0.406h-1.157v8.293h-5.534v-23.78h6.943c1.89,0.012,3.511,0.688,4.86,2.024
			c1.338,1.337,2.007,2.958,2.007,4.86v1.718c0,1.71-0.561,3.208-1.679,4.493c0.912,1.132,1.467,2.379,1.658,3.741l0.021,0.154
			L216.39,39.37z M208.539,25.562c0.386-0.012,0.714-0.147,0.984-0.405c0.27-0.27,0.404-0.598,0.404-0.983v-1.679
			c0-0.373-0.136-0.693-0.404-0.964c-0.271-0.27-0.599-0.406-0.984-0.406h-1.369v4.437L208.539,25.562L208.539,25.562z"/>
		<path fill="#ED1C24" d="M222.87,36.651c0,0.771-0.271,1.427-0.812,1.967c-0.539,0.54-1.188,0.811-1.947,0.811
			c-0.771,0-1.428-0.271-1.968-0.811c-0.541-0.54-0.812-1.195-0.812-1.967c0-0.76,0.271-1.408,0.812-1.948s1.195-0.81,1.968-0.81
			c0.759,0,1.407,0.27,1.947,0.81C222.6,35.242,222.87,35.893,222.87,36.651z"/>
	</g>
	<g>
		<path fill="#ED1C24" d="M10.513,49.118h200.632l29.108,0.32c0,0,16.631-3.838,57.252-3.838s54.695,7.996,58.214,10.235
			c3.52,2.238,5.438,4.478,0,18.553c-5.438,14.074-28.776,30.06-49.887,29.74c-21.11-0.321-23.999-3.193-47.349-18.865
			c-13.933-9.354-18.52-15.673-37.246-15.673c-18.729,0-210.723,0-210.723,0c-4.951,0-9-4.052-9-9v-2.473
			C1.513,53.168,5.562,49.118,10.513,49.118z"/>
		<path fill="#C8252C" d="M276.867,55.983c-0.788,2.345-3.409,4.705-5.825,5.244l-0.146,0.033c-2.416,0.539-6.416,0.912-8.891,0.829
			c0,0-5.752-0.195-20.752-3.646S9.336,55.172,9.336,55.172c-2.476,0.003-4.5-1.354-4.5-3.016s2.024-3.019,4.5-3.019h227.067
			c2.475,0,6.522-0.092,8.995-0.205c0,0,24.885-1.134,30.035-2.576C280.586,44.914,276.867,55.983,276.867,55.983z"/>
		<path fill="#ED1A38" d="M243.529,55.15c-0.145,4.396,23.379,8.438,54.981,9.469c31.604,1.031,57.341-1.696,57.483-6.094
			c0.143-4.395-23.043-11.863-54.646-12.893C269.744,44.601,243.673,50.754,243.529,55.15z"/>
		<g>
			<g>
				<g>
					<g>
						<defs>
							<path id="SVGID_1_" d="M243.529,55.15c-0.145,4.396,23.379,8.438,54.981,9.469c31.604,1.031,57.341-1.696,57.483-6.094
								c0.143-4.395,24.374-49.444-55.352-48.944C220.919,10.08,243.673,50.754,243.529,55.15z"/>
						</defs>
						<clipPath id="SVGID_2_">
							<use xlink:href="#SVGID_1_"  overflow="visible"/>
						</clipPath>
						<g clip-path="url(#SVGID_2_)">
							<path fill="#8B0304" d="M249.521,60.073c6.598,6.947,18.822,3.607,25.42-5.395c0.639-4.733,1.276-9.468,1.914-14.2
								c-7.592-10.356-21.656-14.198-29.247-6.205C248.245,42.873,248.883,51.474,249.521,60.073z"/>
							<g>
								<circle fill="#EF4130" cx="311.537" cy="32.837" r="6.149"/>
								<circle fill="#EF4130" cx="314.893" cy="35.619" r="6.149"/>
								<circle fill="#EF4130" cx="305.201" cy="34.434" r="6.149"/>
								<circle fill="#EF4130" cx="309.793" cy="39.052" r="6.149"/>
								<circle fill="#EF4130" cx="302.299" cy="41.134" r="6.149"/>
								<path fill="#EF4130" d="M314.778,35.399c0,0-1.188,8.805,6.086,17.844l-4.127,2.778
									c-5.641-10.137-14.245-12.349-14.245-12.349L314.778,35.399z"/>
							</g>
							<g>
								<circle fill="#EF4130" cx="350.783" cy="54.703" r="6.148"/>
								<circle fill="#EF4130" cx="348.905" cy="58.635" r="6.149"/>
								<circle fill="#EF4130" cx="347.684" cy="48.949" r="6.149"/>
								<circle fill="#EF4130" cx="344.329" cy="54.53" r="6.149"/>
								<circle fill="#EF4130" cx="340.48" cy="47.77" r="6.149"/>
								<path fill="#EF4130" d="M349.091,58.471c0,0-8.829,1-15.818,10.261l-3.701-3.323c8.452-7.945,8.496-16.831,8.496-16.831
									L349.091,58.471z"/>
							</g>
							<g>
								<path fill="#8E3F2B" d="M294.557,41.892c0.112-0.09,0.229-0.175,0.343-0.26l16.78,20.816
									c-0.108,0.094-0.217,0.188-0.327,0.278c-5.716,4.606-14.108,3.678-18.746-2.074
									C287.968,54.897,288.842,46.498,294.557,41.892z"/>
								<path fill="#F37053" d="M295.84,42.798l15.078,18.707c-5.068,3.868-12.386,2.945-16.486-2.143
									C290.332,54.277,290.982,46.929,295.84,42.798z"/>
							</g>
							<g>
								<path fill="#8E3F2B" d="M274.98,25.993c0.043-0.136,0.093-0.271,0.139-0.405l25.525,7.962
									c-0.038,0.137-0.073,0.276-0.116,0.414c-2.188,7.008-9.679,10.904-16.732,8.704
									C276.741,40.468,272.795,33.002,274.98,25.993z"/>
								<path fill="#F37053" d="M276.551,26.033l22.938,7.155c-2.06,6.035-8.654,9.34-14.893,7.393
									C278.36,38.636,274.813,32.169,276.551,26.033z"/>
							</g>
							<g>
								<path fill="#C4161C" d="M319,68.15c5.008,3.565,10.673,2.783,13.413-1.32c2.212-3.146,4.723-6.095,7.501-8.813
									c3.48-3.629,5.552-8.917,3.972-12.392c-0.813-1.653-1.628-3.307-2.441-4.961c-1.559-3.457-8.416-4.586-14.831-1.38
									c-4.746,2.456-9.277,5.352-13.531,8.653c-5.796,4.368-5.858,11.599-0.864,15.14C314.478,64.768,316.738,66.457,319,68.15z"
									/>
								<path opacity="0.4" fill="#8B0304" d="M334.747,55.879c0.749,0.567,1.757,0.431,2.214-0.261l0,0
									c0.457-0.69,0.263-1.627-0.4-2.132c-3.479-2.638-6.304-6.039-8.258-9.943c-0.375-0.744-1.26-1.108-2.021-0.784l0,0
									c-0.764,0.321-1.082,1.288-0.661,2.128C327.778,49.201,330.902,52.964,334.747,55.879z"/>
								<path opacity="0.4" fill="#8B0304" d="M330.273,60.924c0.814,0.687,1.908,0.677,2.409,0.018l0,0
									c0.503-0.66,0.273-1.68-0.479-2.313c-3.926-3.304-7.229-7.281-9.756-11.747c-0.484-0.855-1.445-1.269-2.187-0.896l0,0
									c-0.739,0.372-0.949,1.446-0.426,2.373C322.54,53.135,326.074,57.391,330.273,60.924z"/>
								<path opacity="0.4" fill="#8B0304" d="M325.087,65.643c0.958,0.602,2.087,0.426,2.462-0.313l0,0
									c0.376-0.738-0.034-1.705-0.867-2.229c-4.371-2.739-7.752-6.811-9.643-11.61c-0.362-0.915-1.236-1.496-2.031-1.262l0,0
									c-0.793,0.234-1.175,1.309-0.76,2.362C316.372,57.986,320.173,62.563,325.087,65.643z"/>
							</g>
							<g>
								<path fill="#C4161C" d="M282.261,35.912c-6.075-0.928-10.781,2.32-11.384,7.219c-0.558,3.804-1.471,7.569-2.729,11.245
									c-1.475,4.808-0.941,10.463,2.031,12.854c1.473,1.11,2.943,2.22,4.415,3.33c2.947,2.386,9.579,0.306,13.863-5.445
									c3.134-4.33,5.874-8.954,8.187-13.817c3.209-6.512,0.01-12.995-6.045-13.909C287.821,36.896,285.041,36.404,282.261,35.912z
									"/>
								<path opacity="0.4" fill="#8B0304" d="M273.725,53.958c-0.924-0.171-1.763,0.406-1.858,1.229l0,0
									c-0.098,0.823,0.497,1.572,1.316,1.723c4.295,0.789,8.349,2.556,11.852,5.161c0.67,0.496,1.622,0.423,2.159-0.21l0,0
									c0.534-0.631,0.385-1.637-0.368-2.198C282.953,56.782,278.471,54.83,273.725,53.958z"/>
								<path opacity="0.4" fill="#8B0304" d="M275.448,47.44c-1.037-0.246-2.011,0.256-2.161,1.07l0,0
									c-0.15,0.814,0.513,1.623,1.47,1.85c4.991,1.182,9.733,3.245,14,6.096c0.818,0.546,1.861,0.481,2.354-0.185l0,0
									c0.493-0.663,0.196-1.719-0.688-2.311C285.859,50.911,280.788,48.703,275.448,47.44z"/>
								<path opacity="0.4" fill="#8B0304" d="M277.954,40.891c-1.126-0.106-2.054,0.561-2.057,1.388l0,0
									c-0.003,0.83,0.8,1.506,1.778,1.601c5.137,0.479,9.987,2.59,13.837,6.025c0.736,0.654,1.777,0.779,2.384,0.211l0,0
									c0.604-0.564,0.459-1.698-0.387-2.45C289.184,43.804,283.729,41.429,277.954,40.891z"/>
							</g>
						</g>
					</g>
				</g>
			</g>
		</g>
	</g>
	<g>
		<path fill="#ED1C24" d="M286.37,3.293c0,0,0.301,0.275,0.734,0.834c0.436,0.558,1.012,1.396,1.533,2.517
			c0.514,1.118,0.985,2.53,1.056,4.177c0.031,0.819-0.043,1.698-0.291,2.568c-0.239,0.873-0.667,1.725-1.23,2.463l-0.449,0.529
			l-0.487,0.481l-0.016,0.015l-0.009,0.008c-0.016,0.017,0.116-0.115,0.059-0.058l-0.025,0.026l-0.052,0.053l-0.102,0.105
			l-0.205,0.207l-0.409,0.41c-0.195,0.252-0.337,0.467-0.53,0.688c-0.132,0.271-0.307,0.526-0.424,0.797
			c-0.091,0.279-0.236,0.544-0.277,0.832c-0.033,0.144-0.066,0.283-0.099,0.423c-0.021,0.144-0.022,0.287-0.041,0.43
			c-0.066,0.569-0.004,1.139,0.063,1.673c0.042,0.267,0.104,0.521,0.153,0.771c0.067,0.246,0.134,0.479,0.195,0.699
			c0.143,0.438,0.276,0.827,0.407,1.142c0.136,0.313,0.237,0.568,0.319,0.735c0.081,0.17,0.125,0.26,0.125,0.26
			s-0.348-0.215-0.856-0.716c-0.252-0.251-0.551-0.572-0.854-0.977c-0.153-0.202-0.292-0.434-0.453-0.673
			c-0.139-0.251-0.283-0.521-0.422-0.812c-0.246-0.592-0.49-1.271-0.563-2.049c-0.021-0.193-0.046-0.39-0.051-0.591
			c0.01-0.203,0.021-0.408,0.029-0.616c-0.007-0.423,0.14-0.832,0.227-1.263c0.113-0.424,0.319-0.818,0.492-1.236
			c0.241-0.393,0.514-0.824,0.787-1.18l0.386-0.434l0.194-0.217l0.1-0.107l0.05-0.054l0.11-0.112l0.338-0.347l0.304-0.37
			c0.395-0.5,0.688-1.063,0.9-1.663c0.209-0.602,0.335-1.238,0.393-1.885c0.113-1.293-0.03-2.588-0.219-3.702
			c-0.186-1.119-0.43-2.063-0.602-2.729C286.485,3.683,286.37,3.293,286.37,3.293z"/>
	</g>
	<g>
		<path fill="#ED1C24" d="M308.486,1.257c0,0,0.334,0.254,0.826,0.787c0.487,0.535,1.135,1.353,1.719,2.475
			c0.576,1.119,1.114,2.554,1.22,4.271c0.052,0.854-0.014,1.781-0.271,2.705c-0.243,0.928-0.699,1.836-1.297,2.624l-0.478,0.562
			l-0.52,0.509l-0.017,0.016l-0.008,0.009c-0.023,0.021,0.164-0.163,0.082-0.082l-0.025,0.025l-0.052,0.052l-0.102,0.104
			l-0.207,0.205l-0.415,0.406c-0.115,0.125-0.15,0.209-0.234,0.312c-0.077,0.094-0.158,0.188-0.244,0.279
			c-0.123,0.242-0.291,0.469-0.41,0.71c-0.09,0.249-0.237,0.483-0.286,0.746c-0.038,0.129-0.074,0.258-0.113,0.385
			c-0.027,0.131-0.031,0.265-0.06,0.396c-0.094,0.529-0.066,1.076-0.034,1.599c0.022,0.262,0.069,0.514,0.099,0.762
			c0.051,0.248,0.099,0.483,0.145,0.705c0.106,0.446,0.221,0.843,0.321,1.173c0.107,0.327,0.189,0.598,0.258,0.774
			c0.066,0.182,0.103,0.277,0.103,0.277s-0.377-0.187-0.941-0.657c-0.281-0.236-0.602-0.55-0.939-0.947
			c-0.17-0.198-0.324-0.428-0.504-0.668c-0.157-0.251-0.319-0.523-0.477-0.819c-0.281-0.604-0.562-1.306-0.661-2.124
			c-0.027-0.204-0.059-0.412-0.068-0.625c0.006-0.215,0.012-0.434,0.016-0.653l0.014-0.336c0.009-0.112,0.039-0.223,0.06-0.333
			c0.048-0.226,0.096-0.451,0.144-0.681c0.112-0.453,0.324-0.876,0.507-1.323c0.251-0.428,0.549-0.901,0.838-1.277l0.383-0.438
			l0.191-0.219l0.1-0.107l0.05-0.054l0.134-0.137l0.308-0.319l0.275-0.338c0.36-0.452,0.626-0.958,0.834-1.503
			c0.201-0.548,0.337-1.138,0.413-1.749c0.148-1.223,0.071-2.495-0.052-3.607c-0.125-1.115-0.298-2.083-0.418-2.771
			C308.561,1.656,308.486,1.257,308.486,1.257z"/>
	</g>
	<g>
		<path fill="#ED1C24" d="M331.791,10.221c0,0,0.301,0.274,0.735,0.834c0.435,0.557,1.011,1.396,1.532,2.516
			c0.514,1.118,0.985,2.53,1.056,4.176c0.032,0.819-0.043,1.698-0.291,2.568c-0.239,0.872-0.667,1.724-1.23,2.463l-0.448,0.529
			l-0.488,0.481l-0.016,0.016l-0.008,0.007c-0.017,0.017,0.115-0.115,0.058-0.056l-0.025,0.025l-0.051,0.052l-0.103,0.105
			l-0.205,0.207l-0.409,0.41c-0.195,0.252-0.336,0.467-0.53,0.688c-0.131,0.271-0.307,0.526-0.424,0.797
			c-0.09,0.279-0.236,0.544-0.277,0.832c-0.032,0.144-0.066,0.284-0.099,0.425c-0.021,0.142-0.022,0.285-0.041,0.428
			c-0.066,0.571-0.004,1.14,0.063,1.674c0.043,0.266,0.105,0.521,0.153,0.771c0.068,0.245,0.134,0.479,0.195,0.698
			c0.143,0.438,0.276,0.828,0.407,1.144c0.136,0.312,0.237,0.566,0.319,0.733c0.081,0.17,0.125,0.262,0.125,0.262
			s-0.347-0.216-0.856-0.718c-0.252-0.251-0.551-0.57-0.854-0.977c-0.153-0.202-0.292-0.433-0.453-0.673
			c-0.139-0.251-0.283-0.521-0.422-0.812c-0.246-0.592-0.489-1.271-0.563-2.048c-0.021-0.192-0.046-0.391-0.051-0.592
			c0.011-0.202,0.021-0.408,0.029-0.615c-0.007-0.423,0.14-0.832,0.227-1.263c0.113-0.423,0.319-0.818,0.493-1.235
			c0.24-0.394,0.514-0.825,0.786-1.18l0.386-0.432l0.194-0.218l0.1-0.106l0.051-0.054l0.109-0.112l0.338-0.348l0.304-0.369
			c0.395-0.5,0.688-1.063,0.9-1.663c0.209-0.603,0.335-1.24,0.394-1.887c0.112-1.293-0.031-2.588-0.22-3.701
			c-0.186-1.119-0.43-2.063-0.602-2.73C331.906,10.61,331.791,10.221,331.791,10.221z"/>
	</g>
</g>
<g id="Layer_2" display="none">
	<path display="inline" fill="#C8252C" d="M652.502,14.684c1.923,2.729,3.425,5.745,4.771,8.816c1.348,3.08,2.414,6.277,3.377,9.519
		c1.848,6.499,2.898,13.246,3.264,20.039c0.702,13.603-1.477,27.35-5.883,40.214c-0.54,1.587-1.173,3.251-1.73,4.736
		c-0.545,1.467-1.078,2.993-1.584,4.496c-1.046,3.014-1.96,6.063-2.796,9.127c-1.674,6.134-2.906,12.369-3.618,18.678
		c-0.705,6.308-0.842,12.688-0.256,19.066c0.256,3.197,0.784,6.373,1.481,9.538c0.346,1.583,0.766,3.154,1.26,4.712
		c0.47,1.567,1.03,3.11,1.714,4.626c-2.209-2.513-3.882-5.479-5.332-8.522c-1.448-3.062-2.542-6.281-3.471-9.56
		c-1.776-6.577-2.512-13.438-2.461-20.271c0.048-6.839,0.934-13.649,2.392-20.301c0.729-3.328,1.645-6.605,2.636-9.854
		c0.518-1.626,1.06-3.208,1.642-4.836c0.583-1.601,1.098-3.021,1.612-4.552c4.119-12.028,6.715-24.543,7.345-37.287
		c0.328-6.369,0.15-12.789-0.524-19.212C655.67,27.436,654.477,21.019,652.502,14.684z"/>
	<path display="inline" fill="#C8252C" d="M647.872,0c-1.351,5.339-1.633,10.656-1.296,15.854
		c0.354,5.201,1.453,10.279,3.137,15.188c0.401,1.197,0.908,2.516,1.336,3.89c0.407,1.355,0.786,2.728,1.077,4.118
		c0.586,2.783,0.929,5.639,0.901,8.499c-0.027,2.858-0.396,5.728-1.211,8.456c-0.856,2.7-2.022,5.368-3.944,7.411
		c0.946-2.591,1.378-5.229,1.529-7.853c0.154-2.62,0.038-5.224-0.3-7.788c-0.343-2.566-0.879-5.103-1.582-7.596
		c-0.354-1.248-0.73-2.49-1.166-3.719c-0.401-1.215-0.893-2.43-1.37-3.804c-1.846-5.371-2.711-11.138-2.325-16.814
		c0.198-2.835,0.695-5.645,1.541-8.331C645.082,4.842,646.178,2.219,647.872,0z"/>
	<path display="inline" fill="#C8252C" d="M639.377,34.397c1.694,2.22,2.79,4.843,3.672,7.512c0.85,2.688,1.344,5.499,1.542,8.334
		c0.386,5.678-0.48,11.442-2.325,16.813c-0.479,1.374-0.969,2.588-1.369,3.803c-0.437,1.228-0.813,2.471-1.168,3.718
		c-0.702,2.494-1.238,5.028-1.58,7.596c-0.338,2.566-0.455,5.168-0.301,7.788c0.151,2.623,0.583,5.263,1.529,7.854
		c-1.922-2.043-3.088-4.711-3.944-7.41c-0.815-2.729-1.184-5.598-1.211-8.455c-0.024-2.862,0.315-5.716,0.901-8.499
		c0.291-1.396,0.67-2.764,1.077-4.12c0.428-1.375,0.935-2.691,1.336-3.889c1.684-4.906,2.782-9.987,3.137-15.188
		C641.009,45.054,640.729,39.736,639.377,34.397z"/>
</g>
</svg>
