<?xml version="1.0" encoding="utf-8"?>
<!-- Generator: Adobe Illustrator 16.0.3, SVG Export Plug-In . SVG Version: 6.00 Build 0)  -->
<!DOCTYPE svg PUBLIC "-//W3C//DTD SVG 1.1//EN" "http://www.w3.org/Graphics/SVG/1.1/DTD/svg11.dtd">
<svg version="1.1" id="Layer_1" xmlns="http://www.w3.org/2000/svg" xmlns:xlink="http://www.w3.org/1999/xlink" x="0px" y="0px"
	 width="361.08px" height="105.391px" viewBox="180.366 52.644 361.08 105.391"
	 enable-background="new 180.366 52.644 361.08 105.391" xml:space="preserve">
<g id="Layer_1_1_">
	<g>
		<path fill="#C8252C" d="M212.398,78.093c-0.013,1.89-0.688,3.51-2.025,4.86c-1.337,1.337-2.958,2.006-4.861,2.006h-1.408v8.294
			h-5.516V65.635h6.924c1.903,0.012,3.523,0.688,4.861,2.025c1.337,1.337,2.012,2.958,2.025,4.86V78.093z M206.882,72.538
			c0-0.386-0.135-0.714-0.405-0.984s-0.598-0.405-0.983-0.405h-1.389v8.293h1.389c0.385,0,0.713-0.135,0.983-0.406
			s0.405-0.597,0.405-0.983V72.538z"/>
		<path fill="#C8252C" d="M226.228,87.756v5.535h-12.17v-23.82h5.535v18.284L226.228,87.756L226.228,87.756z"/>
		<path fill="#C8252C" d="M234.347,68.893c1.903,0,3.53,0.676,4.88,2.025c1.35,1.35,2.025,2.983,2.025,4.899v17.454h-5.536v-5.534
			h-2.758v5.534h-5.535V75.818c0-1.916,0.675-3.549,2.025-4.899C230.798,69.569,232.432,68.893,234.347,68.893z M235.717,82.201
			v-6.384c0-0.385-0.135-0.714-0.405-0.984s-0.592-0.405-0.965-0.405c-0.385,0-0.713,0.135-0.983,0.405s-0.405,0.598-0.405,0.984
			v6.384H235.717z"/>
		<path fill="#C8252C" d="M257.105,69.491v23.761h-5.516v-5.883l-2.777-6.48v12.364h-5.516V69.491h5.516v0.135l2.777,6.481v-6.615
			L257.105,69.491L257.105,69.491z"/>
		<path fill="#C8252C" d="M264.57,90.552c0,0.771-0.27,1.427-0.81,1.967s-1.189,0.81-1.948,0.81c-0.771,0-1.427-0.27-1.967-0.81
			s-0.81-1.196-0.81-1.967c0-0.76,0.27-1.408,0.81-1.948s1.196-0.81,1.967-0.81c0.759,0,1.408,0.27,1.948,0.81
			S264.57,89.794,264.57,90.552z"/>
		<path fill="#C8252C" d="M272.458,71.15v8.293h5.536v5.535h-5.536v2.778h6.635v5.535h-12.17V65.615h12.17v5.535L272.458,71.15
			L272.458,71.15z"/>
		<path fill="#C8252C" d="M287.734,68.893c1.903,0,3.529,0.676,4.879,2.025c1.35,1.35,2.025,2.983,2.025,4.899v17.454h-5.536v-5.534
			h-2.758v5.534h-5.536V75.818c0-1.916,0.675-3.549,2.025-4.899C284.184,69.569,285.818,68.893,287.734,68.893z M289.103,82.201
			v-6.384c0-0.385-0.135-0.714-0.405-0.984s-0.592-0.405-0.964-0.405c-0.386,0-0.714,0.135-0.984,0.405s-0.405,0.598-0.405,0.984
			v6.384H289.103z"/>
		<path fill="#C8252C" d="M309.895,75.027h-4.186v18.245h-5.516V75.027h-4.108v-5.535h13.81V75.027z"/>
		<path fill="#C8252C" d="M316.144,90.552c0,0.771-0.27,1.427-0.81,1.967s-1.189,0.81-1.948,0.81c-0.771,0-1.427-0.27-1.968-0.81
			s-0.81-1.196-0.81-1.967c0-0.76,0.27-1.408,0.81-1.948s1.196-0.81,1.968-0.81c0.758,0,1.408,0.27,1.948,0.81
			S316.144,89.794,316.144,90.552z"/>
		<path fill="#C8252C" d="M325.787,65.055c1.852,0.064,3.427,0.765,4.726,2.102c1.285,1.337,1.928,2.938,1.928,4.802v2.835h-5.516
			v-2.835c0-0.373-0.135-0.694-0.405-0.964s-0.598-0.406-0.983-0.406c-0.334,0-0.624,0.103-0.868,0.308
			c-0.038,0.026-0.071,0.058-0.096,0.097h-0.02c-0.026,0.026-0.052,0.058-0.077,0.096h-0.02c-0.026,0.039-0.045,0.071-0.058,0.096
			v0.019h-0.02c-0.026,0.039-0.045,0.071-0.058,0.097c0.012-0.013,0.012-0.007,0,0.019c-0.026,0.039-0.045,0.071-0.058,0.096
			l-0.02,0.058l-0.02,0.077l-0.02,0.077l-0.02,0.058c0,0.013-0.006,0.039-0.02,0.077v0.057c0,0.052,0,0.096,0,0.136v6.114
			c0,0.386,0.135,0.714,0.405,0.984c0.27,0.257,0.591,0.385,0.964,0.385l0.251,0.019c1.852,0.065,3.426,0.765,4.726,2.103
			c1.285,1.338,1.928,2.938,1.928,4.802c0,1.903-0.668,3.53-2.006,4.88c-1.35,1.35-2.983,2.025-4.899,2.025h-6.905v-5.535h6.905
			c0.385,0,0.713-0.135,0.983-0.406s0.405-0.592,0.405-0.964c0-0.386-0.135-0.714-0.405-0.984s-0.598-0.406-0.983-0.406h-0.27
			c-1.839-0.077-3.401-0.778-4.687-2.102c-1.286-1.337-1.936-2.931-1.948-4.783v-6.153c0.013-1.903,0.688-3.523,2.025-4.86
			c1.337-1.337,2.958-2.012,4.86-2.025h0.272V65.055z"/>
		<path fill="#C8252C" d="M340.812,68.893c1.903,0,3.529,0.676,4.879,2.025c1.35,1.35,2.025,2.983,2.025,4.899v17.454h-5.535v-5.534
			h-2.759v5.534h-5.535V75.818c0-1.916,0.675-3.549,2.025-4.899C337.262,69.569,338.896,68.893,340.812,68.893z M342.181,82.201
			v-6.384c0-0.385-0.136-0.714-0.406-0.984s-0.591-0.405-0.964-0.405c-0.385,0-0.713,0.135-0.983,0.405s-0.406,0.598-0.406,0.984
			v6.384H342.181z"/>
		<path fill="#C8252C" d="M366.714,69.491l-5.381,23.781h-6.422l-5.323-23.781h5.536l3.164,14.349l2.411-14.349H366.714z"/>
		<path fill="#C8252C" d="M381.759,86.965c-0.013,1.903-0.695,3.523-2.045,4.861c-1.338,1.337-2.958,2.006-4.86,2.006
			c-1.891,0-3.511-0.668-4.86-2.006c-1.351-1.324-2.032-2.932-2.045-4.822V75.759c0.012-1.904,0.694-3.517,2.045-4.842
			c1.35-1.337,2.969-2.006,4.86-2.006c1.902,0,3.522,0.668,4.86,2.006c1.35,1.338,2.031,2.958,2.045,4.861V86.965z M376.242,75.818
			c-0.013-0.385-0.148-0.714-0.406-0.984c-0.27-0.27-0.597-0.405-0.983-0.405s-0.714,0.135-0.983,0.405
			c-0.271,0.27-0.406,0.598-0.406,0.984v11.11c0,0.385,0.136,0.713,0.406,0.983c0.27,0.27,0.597,0.406,0.983,0.406
			s0.714-0.135,0.983-0.406c0.271-0.27,0.406-0.598,0.406-0.983V75.818z"/>
		<path fill="#C8252C" d="M398.269,93.272h-5.517l-0.945-6.654l-0.019-0.251c-0.065-0.386-0.251-0.713-0.56-0.983
			s-0.649-0.406-1.022-0.406h-1.157v8.293h-5.534V69.49h6.943c1.89,0.012,3.511,0.688,4.86,2.025
			c1.338,1.337,2.007,2.958,2.007,4.86v1.718c0,1.71-0.56,3.208-1.678,4.493c0.912,1.132,1.466,2.379,1.658,3.741l0.02,0.155
			L398.269,93.272z M390.418,79.463c0.386-0.012,0.714-0.147,0.984-0.405c0.27-0.27,0.405-0.598,0.405-0.984v-1.678
			c0-0.373-0.136-0.694-0.405-0.964c-0.271-0.27-0.598-0.406-0.984-0.406h-1.369v4.436L390.418,79.463L390.418,79.463z"/>
		<path fill="#C8252C" d="M404.749,90.552c0,0.771-0.271,1.427-0.811,1.967s-1.189,0.81-1.948,0.81c-0.771,0-1.427-0.27-1.968-0.81
			s-0.811-1.196-0.811-1.967c0-0.76,0.271-1.408,0.811-1.948s1.196-0.81,1.968-0.81c0.759,0,1.407,0.27,1.948,0.81
			S404.749,89.794,404.749,90.552z"/>
	</g>
	<g>
		<path fill="#ED1C24" d="M192.392,103.02h200.631l29.109,0.32c0,0,16.631-3.838,57.252-3.838s54.695,7.996,58.214,10.236
			c3.519,2.238,5.438,4.477,0,18.552c-5.438,14.074-28.777,30.06-49.887,29.74c-21.11-0.321-23.999-3.193-47.349-18.865
			c-13.932-9.353-18.519-15.673-37.246-15.673c-18.729,0-210.723,0-210.723,0c-4.95,0-9-4.051-9-9v-2.472
			C183.392,107.07,187.441,103.02,192.392,103.02z"/>
		<path fill="#C8252C" d="M458.746,109.884c-0.788,2.345-3.409,4.705-5.825,5.244l-0.147,0.033c-2.416,0.539-6.416,0.912-8.89,0.829
			c0,0-5.752-0.195-20.752-3.646c-15-3.451-231.917-3.271-231.917-3.271c-2.475,0.003-4.5-1.354-4.5-3.015
			c0-1.661,2.025-3.019,4.5-3.019h227.067c2.475,0,6.523-0.092,8.995-0.205c0,0,24.885-1.134,30.036-2.576
			C462.465,98.816,458.746,109.884,458.746,109.884z"/>
		<path fill="#ED1A38" d="M425.408,109.051c-0.144,4.396,23.379,8.438,54.982,9.469c31.604,1.031,57.34-1.697,57.483-6.094
			c0.143-4.395-23.043-11.863-54.646-12.893C451.623,98.502,425.552,104.655,425.408,109.051z"/>
		<g>
			<g>
				<g>
					<defs>
						<path id="SVGID_1_" d="M425.408,109.051c-0.144,4.396,23.379,8.438,54.982,9.469c31.604,1.031,57.34-1.697,57.483-6.094
							c0.143-4.395,24.374-49.444-55.351-48.944C402.798,63.982,425.552,104.655,425.408,109.051z"/>
					</defs>
					<clipPath id="SVGID_2_">
						<use xlink:href="#SVGID_1_"  overflow="visible"/>
					</clipPath>
					<g clip-path="url(#SVGID_2_)">
						<path fill="#8B0304" d="M431.399,113.975c6.598,6.947,18.823,3.607,25.42-5.395c0.639-4.733,1.277-9.467,1.914-14.2
							c-7.591-10.356-21.656-14.198-29.247-6.205C430.124,96.775,430.762,105.375,431.399,113.975z"/>
						<g>
							<circle fill="#EF4130" cx="493.416" cy="86.738" r="6.149"/>
							<circle fill="#EF4130" cx="496.771" cy="89.52" r="6.149"/>
							<circle fill="#EF4130" cx="487.08" cy="88.336" r="6.149"/>
							<circle fill="#EF4130" cx="491.672" cy="92.954" r="6.149"/>
							<circle fill="#EF4130" cx="484.178" cy="95.035" r="6.149"/>
							<path fill="#EF4130" d="M496.657,89.3c0,0-1.188,8.805,6.086,17.844l-4.127,2.778c-5.64-10.137-14.245-12.349-14.245-12.349
								L496.657,89.3z"/>
						</g>
						<g>
							<circle fill="#EF4130" cx="532.662" cy="108.604" r="6.148"/>
							<circle fill="#EF4130" cx="530.784" cy="112.537" r="6.149"/>
							<circle fill="#EF4130" cx="529.563" cy="102.85" r="6.149"/>
							<circle fill="#EF4130" cx="526.208" cy="108.431" r="6.149"/>
							<circle fill="#EF4130" cx="522.359" cy="101.672" r="6.149"/>
							<path fill="#EF4130" d="M530.97,112.372c0,0-8.829,1-15.819,10.261l-3.701-3.323c8.452-7.946,8.496-16.831,8.496-16.831
								L530.97,112.372z"/>
						</g>
						<g>
							<path fill="#8E3F2B" d="M476.436,95.793c0.112-0.09,0.228-0.175,0.342-0.26l16.781,20.817
								c-0.109,0.094-0.217,0.188-0.328,0.278c-5.715,4.607-14.108,3.678-18.746-2.074
								C469.847,108.798,470.721,100.4,476.436,95.793z"/>
							<path fill="#F37053" d="M477.719,96.699l15.078,18.707c-5.068,3.869-12.386,2.946-16.486-2.142
								C472.211,108.178,472.861,100.83,477.719,96.699z"/>
						</g>
						<g>
							<path fill="#8E3F2B" d="M456.859,79.895c0.043-0.136,0.093-0.272,0.139-0.406l25.525,7.962
								c-0.038,0.137-0.073,0.277-0.116,0.414c-2.187,7.008-9.678,10.905-16.732,8.705C458.62,94.369,454.674,86.904,456.859,79.895
								z"/>
							<path fill="#F37053" d="M458.43,79.935l22.938,7.155c-2.059,6.035-8.654,9.34-14.892,7.393
								C460.239,92.537,456.692,86.071,458.43,79.935z"/>
						</g>
						<g>
							<path fill="#C4161C" d="M500.879,122.051c5.008,3.565,10.673,2.783,13.413-1.32c2.212-3.146,4.723-6.095,7.501-8.813
								c3.48-3.629,5.552-8.917,3.972-12.391c-0.814-1.654-1.628-3.307-2.442-4.961c-1.558-3.457-8.416-4.586-14.831-1.38
								c-4.746,2.456-9.277,5.351-13.531,8.653c-5.796,4.368-5.858,11.599-0.864,15.14
								C496.356,118.669,498.617,120.359,500.879,122.051z"/>
							<path fill="#8B0304" d="M516.626,109.78c0.749,0.568,1.757,0.431,2.214-0.26l0,0c0.457-0.691,0.263-1.627-0.401-2.132
								c-3.479-2.638-6.303-6.039-8.257-9.943c-0.375-0.745-1.26-1.109-2.022-0.785l0,0c-0.763,0.322-1.082,1.288-0.661,2.128
								C509.657,103.103,512.781,106.865,516.626,109.78z"/>
							<path fill="#8B0304" d="M512.152,114.825c0.815,0.687,1.909,0.677,2.41,0.018l0,0c0.502-0.66,0.273-1.68-0.479-2.313
								c-3.926-3.304-7.229-7.282-9.756-11.748c-0.484-0.855-1.445-1.268-2.186-0.896l0,0c-0.74,0.372-0.95,1.446-0.426,2.373
								C504.419,107.036,507.953,111.292,512.152,114.825z"/>
							<path fill="#8B0304" d="M506.966,119.544c0.958,0.602,2.087,0.426,2.462-0.313l0,0c0.376-0.739-0.034-1.705-0.867-2.229
								c-4.372-2.739-7.752-6.81-9.643-11.61c-0.362-0.915-1.236-1.496-2.031-1.262l0,0c-0.793,0.234-1.175,1.309-0.76,2.362
								C498.251,111.887,502.052,116.464,506.966,119.544z"/>
						</g>
						<g>
							<path fill="#C4161C" d="M464.14,89.814c-6.076-0.928-10.782,2.32-11.384,7.218c-0.558,3.804-1.471,7.57-2.729,11.246
								c-1.474,4.807-0.941,10.462,2.032,12.853c1.472,1.11,2.943,2.22,4.415,3.33c2.947,2.386,9.579,0.306,13.863-5.445
								c3.134-4.33,5.874-8.954,8.186-13.818c3.209-6.511,0.01-12.995-6.045-13.909C469.7,90.797,466.92,90.305,464.14,89.814z"/>
							<path fill="#8B0304" d="M455.604,107.86c-0.924-0.171-1.763,0.406-1.859,1.228l0,0c-0.098,0.823,0.497,1.572,1.317,1.723
								c4.294,0.789,8.348,2.555,11.851,5.161c0.67,0.496,1.622,0.423,2.159-0.21l0,0c0.534-0.631,0.385-1.637-0.368-2.198
								C464.832,110.684,460.35,108.732,455.604,107.86z"/>
							<path fill="#8B0304" d="M457.327,101.341c-1.037-0.246-2.011,0.256-2.161,1.07l0,0c-0.15,0.815,0.513,1.623,1.47,1.85
								c4.991,1.182,9.733,3.245,14,6.096c0.818,0.546,1.861,0.481,2.354-0.185l0,0c0.493-0.663,0.197-1.719-0.688-2.31
								C467.738,104.813,462.667,102.605,457.327,101.341z"/>
							<path fill="#8B0304" d="M459.833,94.792c-1.126-0.106-2.054,0.561-2.057,1.388l0,0c-0.003,0.83,0.8,1.506,1.779,1.6
								c5.136,0.479,9.987,2.59,13.837,6.026c0.736,0.654,1.777,0.779,2.383,0.211l0,0c0.604-0.565,0.459-1.698-0.386-2.45
								C471.062,97.705,465.608,95.33,459.833,94.792z"/>
						</g>
					</g>
				</g>
			</g>
		</g>
	</g>
	<g>
		<path fill="#ED1C24" d="M468.249,57.195c0,0,0.301,0.275,0.734,0.834c0.436,0.557,1.012,1.396,1.534,2.516
			c0.513,1.118,0.985,2.53,1.055,4.177c0.032,0.819-0.043,1.698-0.291,2.568c-0.239,0.873-0.667,1.725-1.23,2.463l-0.449,0.529
			l-0.488,0.482l-0.015,0.015l-0.009,0.007c-0.016,0.017,0.116-0.115,0.058-0.057l-0.025,0.026l-0.052,0.053l-0.101,0.105
			l-0.205,0.207l-0.41,0.41c-0.195,0.252-0.336,0.467-0.53,0.689c-0.132,0.271-0.306,0.526-0.424,0.797
			c-0.09,0.279-0.236,0.544-0.277,0.832c-0.033,0.143-0.066,0.283-0.099,0.423c-0.021,0.143-0.022,0.287-0.041,0.429
			c-0.066,0.57-0.004,1.139,0.064,1.673c0.042,0.267,0.104,0.521,0.153,0.771c0.068,0.246,0.134,0.479,0.195,0.699
			c0.143,0.438,0.277,0.827,0.408,1.142c0.135,0.312,0.237,0.568,0.319,0.735c0.081,0.17,0.125,0.26,0.125,0.26
			s-0.348-0.215-0.856-0.716c-0.252-0.251-0.551-0.572-0.854-0.977c-0.153-0.202-0.292-0.433-0.453-0.673
			c-0.139-0.251-0.283-0.52-0.422-0.811c-0.246-0.592-0.49-1.272-0.562-2.049c-0.021-0.193-0.046-0.39-0.051-0.591
			c0.01-0.203,0.02-0.408,0.029-0.616c-0.007-0.423,0.14-0.832,0.227-1.263c0.113-0.423,0.319-0.818,0.492-1.236
			c0.241-0.393,0.514-0.824,0.787-1.18l0.386-0.433l0.194-0.217l0.1-0.107l0.05-0.054l0.11-0.112l0.338-0.347l0.303-0.37
			c0.395-0.5,0.688-1.063,0.901-1.663c0.209-0.602,0.335-1.239,0.392-1.885c0.114-1.293-0.03-2.588-0.218-3.702
			c-0.186-1.119-0.43-2.063-0.602-2.73C468.364,57.584,468.249,57.195,468.249,57.195z"/>
	</g>
	<g>
		<path fill="#ED1C24" d="M490.365,55.158c0,0,0.334,0.254,0.826,0.788c0.488,0.535,1.135,1.352,1.719,2.474
			c0.576,1.119,1.114,2.554,1.22,4.271c0.052,0.854-0.014,1.781-0.271,2.705c-0.243,0.927-0.699,1.836-1.296,2.624l-0.478,0.561
			l-0.52,0.509l-0.016,0.016l-0.008,0.008c-0.023,0.022,0.164-0.163,0.082-0.082l-0.025,0.026l-0.052,0.052l-0.102,0.104
			l-0.207,0.205l-0.415,0.406c-0.115,0.125-0.15,0.209-0.234,0.312c-0.077,0.094-0.158,0.187-0.244,0.279
			c-0.123,0.242-0.291,0.469-0.41,0.71c-0.09,0.249-0.238,0.484-0.287,0.746c-0.038,0.129-0.074,0.258-0.113,0.385
			c-0.027,0.131-0.031,0.265-0.059,0.397c-0.094,0.529-0.067,1.076-0.035,1.598c0.023,0.262,0.07,0.514,0.099,0.762
			c0.051,0.248,0.099,0.483,0.145,0.705c0.106,0.446,0.22,0.843,0.321,1.173c0.107,0.327,0.189,0.597,0.258,0.774
			c0.066,0.182,0.102,0.278,0.102,0.278s-0.377-0.187-0.941-0.658c-0.281-0.236-0.602-0.549-0.94-0.947
			c-0.17-0.198-0.324-0.428-0.504-0.668c-0.157-0.251-0.319-0.523-0.476-0.819c-0.281-0.604-0.562-1.306-0.661-2.124
			c-0.028-0.204-0.059-0.412-0.069-0.625c0.006-0.215,0.012-0.434,0.016-0.654l0.014-0.336c0.009-0.112,0.039-0.222,0.059-0.333
			c0.048-0.225,0.096-0.451,0.144-0.68c0.112-0.453,0.324-0.876,0.507-1.323c0.251-0.428,0.549-0.902,0.838-1.278l0.382-0.438
			l0.192-0.219l0.099-0.107l0.05-0.054l0.134-0.137l0.308-0.319l0.275-0.338c0.36-0.452,0.626-0.958,0.834-1.503
			c0.201-0.548,0.337-1.138,0.413-1.749c0.149-1.223,0.071-2.495-0.052-3.607c-0.125-1.116-0.298-2.083-0.418-2.771
			C490.439,55.558,490.365,55.158,490.365,55.158z"/>
	</g>
	<g>
		<path fill="#ED1C24" d="M513.67,64.122c0,0,0.301,0.275,0.735,0.834c0.435,0.557,1.011,1.396,1.533,2.516
			c0.513,1.118,0.985,2.53,1.055,4.176c0.032,0.819-0.043,1.698-0.291,2.568c-0.239,0.872-0.667,1.724-1.23,2.463l-0.449,0.529
			l-0.488,0.482l-0.015,0.015l-0.008,0.007c-0.017,0.017,0.115-0.115,0.057-0.056l-0.025,0.026l-0.051,0.052l-0.102,0.105
			l-0.205,0.207l-0.41,0.41c-0.195,0.252-0.336,0.467-0.53,0.689c-0.131,0.271-0.306,0.526-0.424,0.797
			c-0.09,0.279-0.236,0.544-0.277,0.832c-0.032,0.143-0.066,0.284-0.099,0.424c-0.021,0.142-0.022,0.286-0.041,0.428
			c-0.066,0.571-0.004,1.14,0.064,1.674c0.043,0.266,0.105,0.521,0.153,0.771c0.068,0.246,0.134,0.479,0.195,0.699
			c0.143,0.438,0.277,0.828,0.408,1.143c0.135,0.312,0.237,0.567,0.319,0.734c0.081,0.17,0.125,0.261,0.125,0.261
			s-0.347-0.215-0.856-0.717c-0.252-0.251-0.551-0.571-0.854-0.977c-0.153-0.202-0.292-0.433-0.453-0.673
			c-0.139-0.251-0.283-0.52-0.422-0.811c-0.246-0.592-0.489-1.272-0.562-2.048c-0.021-0.193-0.046-0.391-0.051-0.592
			c0.01-0.202,0.02-0.408,0.029-0.615c-0.007-0.423,0.14-0.832,0.227-1.263c0.113-0.423,0.319-0.818,0.493-1.235
			c0.24-0.394,0.513-0.825,0.786-1.18l0.386-0.432l0.194-0.217l0.1-0.107l0.05-0.054l0.11-0.112l0.338-0.347l0.303-0.37
			c0.395-0.5,0.688-1.063,0.901-1.663c0.209-0.602,0.335-1.24,0.393-1.886c0.113-1.293-0.031-2.588-0.219-3.702
			c-0.186-1.119-0.43-2.063-0.602-2.73C513.785,64.511,513.67,64.122,513.67,64.122z"/>
	</g>
</g>
<g id="Layer_2" display="none">
	<path display="inline" fill="#C8252C" d="M652.502,14.684c1.923,2.729,3.425,5.745,4.771,8.816c1.348,3.08,2.414,6.278,3.377,9.519
		c1.848,6.499,2.899,13.246,3.264,20.039c0.702,13.602-1.477,27.349-5.883,40.214c-0.54,1.587-1.173,3.251-1.73,4.736
		c-0.545,1.467-1.078,2.993-1.584,4.496c-1.046,3.014-1.96,6.063-2.796,9.127c-1.674,6.134-2.906,12.369-3.618,18.678
		c-0.705,6.307-0.842,12.688-0.256,19.066c0.256,3.197,0.784,6.373,1.481,9.538c0.346,1.583,0.766,3.155,1.26,4.712
		c0.47,1.568,1.03,3.111,1.714,4.626c-2.209-2.513-3.882-5.479-5.332-8.522c-1.448-3.062-2.542-6.282-3.471-9.56
		c-1.776-6.577-2.512-13.438-2.461-20.27c0.048-6.839,0.934-13.65,2.392-20.301c0.729-3.328,1.644-6.606,2.636-9.854
		c0.517-1.626,1.059-3.208,1.641-4.836c0.583-1.6,1.098-3.021,1.612-4.551c4.12-12.029,6.715-24.543,7.345-37.287
		c0.328-6.37,0.151-12.79-0.524-19.212C655.67,27.436,654.477,21.019,652.502,14.684z"/>
	<path display="inline" fill="#C8252C" d="M647.872,0c-1.351,5.339-1.633,10.656-1.296,15.854
		c0.354,5.201,1.453,10.279,3.137,15.188c0.401,1.197,0.908,2.516,1.336,3.89c0.407,1.355,0.786,2.727,1.077,4.118
		c0.586,2.783,0.929,5.639,0.901,8.499c-0.027,2.858-0.395,5.728-1.211,8.456c-0.856,2.7-2.022,5.368-3.944,7.411
		c0.946-2.591,1.378-5.229,1.529-7.852c0.155-2.62,0.038-5.224-0.3-7.788c-0.342-2.567-0.878-5.103-1.582-7.596
		c-0.353-1.248-0.73-2.49-1.166-3.719c-0.401-1.215-0.892-2.43-1.37-3.804c-1.845-5.371-2.711-11.137-2.325-16.814
		c0.198-2.835,0.695-5.645,1.541-8.331C645.082,4.842,646.178,2.219,647.872,0z"/>
	<path display="inline" fill="#C8252C" d="M639.377,34.397c1.694,2.219,2.79,4.842,3.672,7.511c0.849,2.689,1.344,5.499,1.542,8.334
		c0.386,5.678-0.481,11.443-2.325,16.814c-0.479,1.374-0.969,2.588-1.369,3.803c-0.437,1.227-0.814,2.47-1.168,3.717
		c-0.703,2.495-1.239,5.029-1.58,7.596c-0.338,2.566-0.456,5.168-0.301,7.788c0.151,2.623,0.583,5.263,1.529,7.854
		c-1.922-2.043-3.088-4.711-3.944-7.41c-0.816-2.73-1.184-5.598-1.211-8.456c-0.025-2.862,0.315-5.715,0.901-8.499
		c0.291-1.396,0.67-2.763,1.077-4.12c0.428-1.375,0.935-2.691,1.336-3.888c1.684-4.907,2.782-9.988,3.137-15.188
		C641.009,45.054,640.729,39.736,639.377,34.397z"/>
</g>
</svg>
