<?xml version="1.0" encoding="utf-8"?>
<!-- Generator: Adobe Illustrator 15.0.0, SVG Export Plug-In . SVG Version: 6.00 Build 0)  -->
<!DOCTYPE svg PUBLIC "-//W3C//DTD SVG 1.1//EN" "http://www.w3.org/Graphics/SVG/1.1/DTD/svg11.dtd">
<svg version="1.1" id="Layer_1" xmlns="http://www.w3.org/2000/svg" xmlns:xlink="http://www.w3.org/1999/xlink" x="0px" y="0px"
	 width="721.813px" height="320.357px" viewBox="0 0 721.813 320.357" enable-background="new 0 0 721.813 320.357"
	 xml:space="preserve">
<g>
	<path fill="#C8252C" d="M63.716,181.402c-0.026,3.78-1.376,7.021-4.05,9.721c-2.675,2.675-5.915,4.012-9.721,4.012h-2.816v16.587
		H36.097v-55.238h13.848c3.806,0.025,7.046,1.376,9.721,4.05c2.674,2.675,4.024,5.915,4.05,9.721V181.402z M52.684,170.293
		c0-0.771-0.27-1.428-0.81-1.968s-1.196-0.81-1.967-0.81h-2.777v16.587h2.777c0.771,0,1.427-0.271,1.967-0.811
		s0.81-1.195,0.81-1.967V170.293z"/>
	<path fill="#C8252C" d="M91.374,200.728v11.071h-24.34v-47.64h11.071v36.568H91.374z"/>
	<path fill="#C8252C" d="M107.614,163.002c3.806,0,7.059,1.351,9.759,4.051s4.05,5.966,4.05,9.798v34.909h-11.071v-11.07h-5.516
		v11.07H93.766v-34.909c0-3.832,1.35-7.098,4.05-9.798S103.782,163.002,107.614,163.002z M110.353,189.618v-12.768
		c0-0.771-0.27-1.428-0.81-1.968s-1.183-0.81-1.929-0.81c-0.771,0-1.427,0.27-1.967,0.81s-0.81,1.196-0.81,1.968v12.768H110.353z"/>
	<path fill="#C8252C" d="M153.131,164.198v47.523h-11.032v-11.766l-5.555-12.961v24.727h-11.032v-47.523h11.032v0.27l5.555,12.961
		v-13.23H153.131z"/>
	<path fill="#C8252C" d="M168.06,206.321c0,1.543-0.54,2.854-1.62,3.935s-2.379,1.62-3.896,1.62c-1.543,0-2.854-0.54-3.935-1.62
		s-1.62-2.392-1.62-3.935c0-1.518,0.54-2.816,1.62-3.896s2.392-1.62,3.935-1.62c1.517,0,2.816,0.54,3.896,1.62
		S168.06,204.804,168.06,206.321z"/>
	<path fill="#C8252C" d="M183.836,167.516v16.587h11.071v11.07h-11.071v5.555h13.27v11.071h-24.34v-55.354h24.34v11.071H183.836z"/>
	<path fill="#C8252C" d="M214.387,163.002c3.806,0,7.059,1.351,9.759,4.051s4.05,5.966,4.05,9.798v34.909h-11.071v-11.07h-5.516
		v11.07h-11.071v-34.909c0-3.832,1.35-7.098,4.05-9.798S210.555,163.002,214.387,163.002z M217.126,189.618v-12.768
		c0-0.771-0.27-1.428-0.81-1.968s-1.183-0.81-1.929-0.81c-0.771,0-1.427,0.27-1.967,0.81s-0.81,1.196-0.81,1.968v12.768H217.126z"/>
	<path fill="#C8252C" d="M258.709,175.269h-8.371v36.491h-11.032v-36.491h-8.216v-11.07h27.619V175.269z"/>
	<path fill="#C8252C" d="M271.207,206.321c0,1.543-0.54,2.854-1.62,3.935s-2.379,1.62-3.896,1.62c-1.543,0-2.854-0.54-3.935-1.62
		s-1.62-2.392-1.62-3.935c0-1.518,0.54-2.816,1.62-3.896s2.392-1.62,3.935-1.62c1.517,0,2.816,0.54,3.896,1.62
		S271.207,204.804,271.207,206.321z"/>
	<path fill="#C8252C" d="M290.494,155.326c3.703,0.129,6.853,1.53,9.451,4.204c2.571,2.675,3.857,5.877,3.857,9.605v5.67H292.77
		v-5.67c0-0.746-0.27-1.389-0.81-1.929s-1.196-0.811-1.967-0.811c-0.669,0-1.248,0.206-1.736,0.617
		c-0.077,0.052-0.142,0.116-0.193,0.193h-0.039c-0.052,0.052-0.103,0.115-0.154,0.192h-0.039c-0.052,0.077-0.09,0.142-0.116,0.193
		v0.038h-0.039c-0.052,0.077-0.09,0.142-0.116,0.193c0.025-0.025,0.025-0.013,0,0.038c-0.052,0.077-0.09,0.142-0.116,0.193
		l-0.039,0.115l-0.039,0.154l-0.039,0.154l-0.039,0.116c0,0.025-0.013,0.077-0.039,0.154v0.115c0,0.104,0,0.193,0,0.271v12.228
		c0,0.771,0.27,1.428,0.81,1.968c0.54,0.515,1.183,0.771,1.929,0.771l0.501,0.038c3.703,0.129,6.853,1.53,9.451,4.205
		c2.571,2.675,3.857,5.876,3.857,9.604c0,3.807-1.337,7.06-4.012,9.76c-2.7,2.7-5.966,4.05-9.798,4.05h-13.81v-11.07h13.81
		c0.771,0,1.427-0.271,1.967-0.811s0.81-1.183,0.81-1.929c0-0.771-0.27-1.427-0.81-1.967s-1.196-0.811-1.967-0.811h-0.54
		c-3.678-0.154-6.802-1.556-9.374-4.204c-2.572-2.675-3.871-5.863-3.896-9.566v-12.306c0.025-3.806,1.375-7.046,4.05-9.721
		c2.674-2.674,5.915-4.024,9.721-4.05H290.494z"/>
	<path fill="#C8252C" d="M320.543,163.002c3.806,0,7.059,1.351,9.759,4.051s4.05,5.966,4.05,9.798v34.909h-11.071v-11.07h-5.516
		v11.07h-11.071v-34.909c0-3.832,1.35-7.098,4.05-9.798S316.711,163.002,320.543,163.002z M323.282,189.618v-12.768
		c0-0.771-0.27-1.428-0.81-1.968s-1.183-0.81-1.929-0.81c-0.771,0-1.427,0.27-1.967,0.81s-0.81,1.196-0.81,1.968v12.768H323.282z"/>
	<path fill="#C8252C" d="M372.349,164.198l-10.763,47.562h-12.845l-10.646-47.562h11.071l6.327,28.699l4.821-28.699H372.349z"/>
	<path fill="#C8252C" d="M402.437,199.146c-0.026,3.806-1.389,7.046-4.089,9.721c-2.675,2.675-5.915,4.012-9.721,4.012
		c-3.78,0-7.021-1.337-9.721-4.012c-2.7-2.648-4.063-5.863-4.089-9.644v-22.489c0.025-3.806,1.389-7.033,4.089-9.682
		c2.7-2.675,5.94-4.012,9.721-4.012c3.806,0,7.046,1.337,9.721,4.012c2.7,2.675,4.062,5.915,4.089,9.721V199.146z M391.404,176.851
		c-0.025-0.771-0.296-1.428-0.811-1.968c-0.539-0.54-1.195-0.81-1.967-0.81s-1.428,0.27-1.967,0.81
		c-0.541,0.54-0.811,1.196-0.811,1.968v22.219c0,0.771,0.27,1.427,0.811,1.967c0.539,0.54,1.195,0.811,1.967,0.811
		s1.428-0.271,1.967-0.811c0.541-0.54,0.811-1.195,0.811-1.967V176.851z"/>
	<path fill="#C8252C" d="M435.457,211.76h-11.033l-1.89-13.308l-0.038-0.502c-0.13-0.771-0.502-1.427-1.119-1.967
		s-1.299-0.811-2.045-0.811h-2.314v16.587h-11.07v-47.562h13.887c3.78,0.025,7.021,1.376,9.721,4.05
		c2.674,2.675,4.012,5.915,4.012,9.721v3.434c0,3.42-1.119,6.416-3.355,8.987c1.825,2.264,2.932,4.758,3.316,7.483l0.039,0.309
		L435.457,211.76z M419.757,184.141c0.771-0.025,1.427-0.295,1.968-0.81c0.539-0.54,0.81-1.196,0.81-1.968v-3.355
		c0-0.746-0.271-1.389-0.81-1.929c-0.541-0.54-1.196-0.811-1.968-0.811h-2.739v8.872H419.757z"/>
	<path fill="#C8252C" d="M448.418,206.321c0,1.543-0.541,2.854-1.621,3.935s-2.379,1.62-3.896,1.62c-1.543,0-2.854-0.54-3.935-1.62
		s-1.62-2.392-1.62-3.935c0-1.518,0.54-2.816,1.62-3.896s2.392-1.62,3.935-1.62c1.517,0,2.815,0.54,3.896,1.62
		S448.418,204.804,448.418,206.321z"/>
</g>
<ellipse fill="#C7C8CA" cx="998" cy="-30.17" rx="9.5" ry="9.23"/>
<g>
	<path fill="#ED1C24" d="M23.702,210.329h401.263l58.22,0.64c0,0,33.259-7.676,114.503-7.676
		c81.243,0,109.391,15.993,116.428,20.471s10.875,8.956,0,37.104s-57.553,60.12-99.774,59.48s-47.999-6.385-94.698-37.73
		c-27.865-18.704-37.038-31.346-74.494-31.346s-421.446,0-421.446,0c-9.9,0-18-8.1-18-18v-4.942
		C5.702,218.429,13.802,210.329,23.702,210.329z"/>
	<path fill="#C8252C" d="M556.413,224.056c-1.577,4.692-6.819,9.413-11.65,10.491l-0.296,0.066
		c-4.831,1.078-12.832,1.823-17.779,1.657c0,0-11.503-0.388-41.503-7.29s-463.836-6.543-463.836-6.543c-4.95,0.005-9-2.709-9-6.03
		s4.05-6.038,9-6.038h454.135c4.95,0,13.046-0.185,17.991-0.409c0,0,49.768-2.268,60.072-5.153S556.413,224.056,556.413,224.056z"/>
	<path fill="#ED1A38" d="M489.736,222.39c-0.287,8.792,46.758,16.878,109.965,18.938c63.209,2.062,114.682-3.395,114.969-12.187
		c0.285-8.79-46.087-23.726-109.295-25.786C542.167,201.294,490.023,213.6,489.736,222.39z"/>
	<g>
		<defs>
			<path id="SVGID_1_" d="M489.736,222.39c-0.287,8.792,46.758,16.878,109.965,18.938c63.209,2.062,114.682-3.395,114.969-12.187
				c0.285-8.79,48.747-98.888-110.703-97.888C444.516,132.254,490.023,213.6,489.736,222.39z"/>
		</defs>
		<clipPath id="SVGID_2_">
			<use xlink:href="#SVGID_1_"  overflow="visible"/>
		</clipPath>
		<g clip-path="url(#SVGID_2_)">
			<path fill="#8B0304" d="M501.72,232.24c13.194,13.895,37.646,7.215,50.84-10.789c1.276-9.467,2.552-18.934,3.827-28.4
				c-15.181-20.713-43.313-28.398-58.494-12.412C499.168,197.84,500.443,215.039,501.72,232.24z"/>
			<g>
				<circle fill="#EF4130" cx="625.754" cy="177.765" r="12.298"/>
				<circle fill="#EF4130" cx="632.465" cy="183.329" r="12.298"/>
				<circle fill="#EF4130" cx="613.082" cy="180.962" r="12.298"/>
				<circle fill="#EF4130" cx="622.265" cy="190.198" r="12.298"/>
				<circle fill="#EF4130" cx="607.277" cy="194.36" r="12.298"/>
				<path fill="#EF4130" d="M632.236,182.889c0,0-2.375,17.611,12.172,35.69l-8.254,5.557c-11.281-20.276-28.492-24.7-28.492-24.7
					L632.236,182.889z"/>
			</g>
			<g>
				<circle fill="#EF4130" cx="704.246" cy="221.498" r="12.297"/>
				<circle fill="#EF4130" cx="700.49" cy="229.364" r="12.298"/>
				<circle fill="#EF4130" cx="698.049" cy="209.989" r="12.298"/>
				<circle fill="#EF4130" cx="691.338" cy="221.151" r="12.298"/>
				<circle fill="#EF4130" cx="683.641" cy="207.634" r="12.298"/>
				<path fill="#EF4130" d="M700.861,229.034c0,0-17.658,2-31.637,20.521l-7.404-6.646c16.906-15.893,16.992-33.662,16.992-33.662
					L700.861,229.034z"/>
			</g>
			<g>
				<path fill="#8E3F2B" d="M591.791,195.875c0.225-0.181,0.455-0.351,0.684-0.522l33.561,41.634
					c-0.217,0.188-0.432,0.377-0.656,0.558c-11.43,9.214-28.217,7.355-37.491-4.15C578.613,221.887,580.361,205.09,591.791,195.875z
					"/>
				<path fill="#F37053" d="M594.357,197.688l30.158,37.414c-10.135,7.74-24.771,5.892-32.973-4.283
					C583.342,220.646,584.643,205.95,594.357,197.688z"/>
			</g>
			<g>
				<path fill="#8E3F2B" d="M552.64,164.08c0.086-0.274,0.183-0.544,0.276-0.813l51.051,15.924
					c-0.076,0.276-0.148,0.554-0.234,0.828c-4.373,14.016-19.355,21.811-33.463,17.41C556.16,193.027,548.268,178.097,552.64,164.08
					z"/>
				<path fill="#F37053" d="M555.779,164.159l45.877,14.311c-4.117,12.07-17.307,18.678-29.783,14.785
					C559.399,189.364,552.305,176.43,555.779,164.159z"/>
			</g>
			<g>
				<path fill="#C4161C" d="M640.68,248.391c10.014,7.13,21.344,5.567,26.826-2.639c4.424-6.292,9.444-12.192,15.001-17.627
					c6.962-7.258,11.103-17.834,7.944-24.783c-1.629-3.308-3.256-6.615-4.885-9.923c-3.116-6.913-16.832-9.172-29.662-2.76
					c-9.493,4.911-18.553,10.701-27.061,17.306c-11.592,8.736-11.717,23.198-1.73,30.281
					C631.635,241.627,636.156,245.009,640.68,248.391z"/>
				<path fill="#8B0304" d="M672.174,223.85c1.497,1.136,3.514,0.863,4.427-0.518l0,0c0.915-1.383,0.526-3.255-0.802-4.264
					c-6.957-5.275-12.607-12.079-16.515-19.888c-0.749-1.49-2.517-2.217-4.044-1.57l0,0c-1.525,0.644-2.164,2.576-1.322,4.256
					C658.236,210.496,664.484,218.019,672.174,223.85z"/>
				<path fill="#8B0304" d="M663.226,233.94c1.63,1.372,3.819,1.353,4.821,0.035l0,0c1.004-1.32,0.546-3.359-0.957-4.626
					c-7.852-6.607-14.46-14.563-19.512-23.495c-0.97-1.711-2.89-2.536-4.371-1.792l0,0c-1.48,0.743-1.9,2.893-0.852,4.746
					C647.76,218.362,654.828,226.873,663.226,233.94z"/>
				<path fill="#8B0304" d="M652.854,243.378c1.916,1.203,4.172,0.849,4.922-0.626l0,0c0.752-1.479-0.069-3.409-1.735-4.458
					c-8.743-5.48-15.503-13.62-19.284-23.222c-0.725-1.83-2.473-2.992-4.064-2.523l0,0c-1.586,0.466-2.349,2.618-1.518,4.723
					C635.424,228.065,643.024,237.217,652.854,243.378z"/>
			</g>
			<g>
				<path fill="#C4161C" d="M567.199,183.917c-12.152-1.857-21.564,4.639-22.766,14.435c-1.117,7.61-2.943,15.14-5.457,22.493
					c-2.948,9.615-1.883,20.923,4.064,25.706c2.944,2.22,5.887,4.44,8.83,6.661c5.895,4.77,19.158,0.61,27.727-10.892
					c6.266-8.659,11.748-17.908,16.371-27.637c6.418-13.021,0.018-25.989-12.09-27.817C578.32,185.884,572.76,184.9,567.199,183.917
					z"/>
				<path fill="#8B0304" d="M550.127,220.011c-1.848-0.341-3.525,0.811-3.719,2.455l0,0c-0.195,1.646,0.994,3.144,2.635,3.446
					c8.588,1.577,16.696,5.108,23.701,10.321c1.34,0.993,3.245,0.846,4.318-0.419l0,0c1.071-1.261,0.771-3.274-0.736-4.396
					C568.584,225.658,559.619,221.754,550.127,220.011z"/>
				<path fill="#8B0304" d="M553.574,206.971c-2.073-0.491-4.02,0.513-4.322,2.14l0,0c-0.301,1.631,1.026,3.245,2.939,3.699
					c9.985,2.365,19.468,6.493,28,12.193c1.637,1.092,3.723,0.964,4.71-0.368l0,0c0.987-1.329,0.395-3.438-1.377-4.621
					C574.397,213.917,564.254,209.5,553.574,206.971z"/>
				<path fill="#8B0304" d="M558.586,193.874c-2.252-0.212-4.107,1.121-4.113,2.775l0,0c-0.006,1.659,1.598,3.013,3.557,3.199
					c10.273,0.957,19.975,5.181,27.675,12.052c1.472,1.308,3.555,1.559,4.765,0.423l0,0c1.207-1.131,0.919-3.396-0.771-4.9
					C581.043,199.699,570.137,194.95,558.586,193.874z"/>
			</g>
		</g>
	</g>
	<path fill="#C8252C" d="M652.502,14.684c1.923,2.729,3.425,5.745,4.771,8.818c1.348,3.08,2.414,6.278,3.377,9.517
		c1.848,6.499,2.901,13.246,3.264,20.039c0.702,13.602-1.476,27.349-5.883,40.214c-0.54,1.587-1.173,3.251-1.73,4.738
		c-0.545,1.465-1.078,2.993-1.584,4.496c-1.046,3.012-1.96,6.061-2.796,9.127c-1.674,6.132-2.906,12.369-3.618,18.676
		c-0.705,6.307-0.842,12.689-0.256,19.068c0.256,3.197,0.784,6.373,1.481,9.538c0.346,1.583,0.766,3.155,1.26,4.712
		c0.47,1.568,1.03,3.111,1.714,4.626c-2.209-2.513-3.882-5.479-5.332-8.524c-1.448-3.06-2.542-6.282-3.471-9.558
		c-1.776-6.577-2.512-13.439-2.461-20.27c0.048-6.839,0.934-13.65,2.392-20.301c0.728-3.328,1.642-6.606,2.636-9.853
		c0.515-1.626,1.057-3.208,1.639-4.836c0.583-1.6,1.098-3.021,1.613-4.551c4.121-12.029,6.714-24.543,7.344-37.287
		c0.328-6.37,0.153-12.79-0.524-19.212C655.67,27.436,654.477,21.019,652.502,14.684z"/>
	<path fill="#C8252C" d="M647.872,0c-1.351,5.339-1.633,10.656-1.296,15.854c0.354,5.201,1.453,10.281,3.137,15.188
		c0.401,1.197,0.908,2.514,1.336,3.888c0.407,1.357,0.786,2.727,1.077,4.12c0.586,2.783,0.929,5.637,0.901,8.499
		c-0.027,2.858-0.393,5.726-1.211,8.456c-0.856,2.7-2.022,5.368-3.944,7.411c0.946-2.591,1.378-5.229,1.529-7.852
		c0.157-2.62,0.038-5.222-0.299-7.788c-0.341-2.567-0.877-5.101-1.583-7.596c-0.351-1.248-0.73-2.49-1.166-3.717
		c-0.401-1.215-0.89-2.43-1.37-3.804c-1.843-5.371-2.711-11.137-2.325-16.814c0.198-2.835,0.695-5.645,1.541-8.333
		C645.082,4.842,646.178,2.219,647.872,0z"/>
	<path fill="#C8252C" d="M639.377,34.397c1.694,2.219,2.79,4.842,3.672,7.511c0.847,2.689,1.344,5.499,1.542,8.334
		c0.386,5.678-0.483,11.443-2.325,16.814c-0.48,1.374-0.969,2.588-1.37,3.803c-0.436,1.227-0.815,2.47-1.167,3.717
		c-0.705,2.495-1.241,5.029-1.582,7.596c-0.337,2.566-0.456,5.168-0.299,7.788c0.151,2.623,0.583,5.261,1.529,7.852
		c-1.922-2.043-3.088-4.711-3.944-7.41c-0.818-2.73-1.184-5.598-1.211-8.456c-0.027-2.862,0.315-5.715,0.901-8.499
		c0.291-1.394,0.67-2.763,1.077-4.12c0.428-1.375,0.935-2.691,1.336-3.888c1.684-4.907,2.782-9.988,3.137-15.188
		C641.009,45.054,640.728,39.736,639.377,34.397z"/>
</g>
</svg>
