<?xml version="1.0" encoding="utf-8"?>
<!-- Generator: Adobe Illustrator 16.0.3, SVG Export Plug-In . SVG Version: 6.00 Build 0)  -->
<!DOCTYPE svg PUBLIC "-//W3C//DTD SVG 1.1//EN" "http://www.w3.org/Graphics/SVG/1.1/DTD/svg11.dtd">
<svg version="1.1" id="Layer_1" xmlns="http://www.w3.org/2000/svg" xmlns:xlink="http://www.w3.org/1999/xlink" x="0px" y="0px"
	 width="721.813px" height="210.68px" viewBox="0 0 721.813 210.68" enable-background="new 0 0 721.813 210.68"
	 xml:space="preserve">
<g id="Layer_1_1_">
	<g>
		<path fill="#C8252C" d="M63.716,48.333c-0.026,3.779-1.376,7.021-4.05,9.721c-2.675,2.675-5.915,4.012-9.721,4.012h-2.816v16.588
			H36.097V23.416h13.848c3.806,0.023,7.046,1.376,9.721,4.05c2.674,2.675,4.024,5.915,4.05,9.721V48.333z M52.684,37.223
			c0-0.771-0.27-1.428-0.81-1.968s-1.196-0.811-1.967-0.811H47.13v16.587h2.777c0.771,0,1.427-0.271,1.967-0.812
			s0.81-1.194,0.81-1.967V37.223z"/>
		<path fill="#C8252C" d="M91.374,67.659v11.07h-24.34V31.09h11.071v36.567L91.374,67.659L91.374,67.659z"/>
		<path fill="#C8252C" d="M107.614,29.932c3.806,0,7.059,1.352,9.759,4.051c2.7,2.7,4.05,5.967,4.05,9.799V78.69h-11.071V67.622
			h-5.516V78.69h-11.07V43.782c0-3.832,1.35-7.099,4.05-9.799C100.516,31.284,103.782,29.932,107.614,29.932z M110.353,56.549V43.78
			c0-0.771-0.27-1.429-0.81-1.969s-1.183-0.81-1.929-0.81c-0.771,0-1.427,0.27-1.967,0.81s-0.81,1.196-0.81,1.969v12.769H110.353z"
			/>
		<path fill="#C8252C" d="M153.131,31.129v47.522h-11.032V66.885l-5.555-12.961v24.728h-11.032V31.129h11.032v0.27l5.555,12.962
			V31.131L153.131,31.129L153.131,31.129z"/>
		<path fill="#C8252C" d="M168.06,73.252c0,1.543-0.54,2.854-1.62,3.935s-2.379,1.62-3.896,1.62c-1.543,0-2.854-0.54-3.935-1.62
			s-1.62-2.392-1.62-3.935c0-1.52,0.54-2.816,1.62-3.896s2.392-1.619,3.935-1.619c1.517,0,2.816,0.539,3.896,1.619
			S168.06,71.735,168.06,73.252z"/>
		<path fill="#C8252C" d="M183.836,34.447v16.587h11.071v11.069h-11.071v5.556h13.27v11.07h-24.34V23.376h24.34v11.07
			L183.836,34.447L183.836,34.447z"/>
		<path fill="#C8252C" d="M214.387,29.932c3.806,0,7.059,1.352,9.759,4.051c2.7,2.7,4.05,5.967,4.05,9.799V78.69h-11.071V67.622
			h-5.516V78.69h-11.071V43.782c0-3.832,1.35-7.099,4.05-9.799C207.288,31.284,210.555,29.932,214.387,29.932z M217.126,56.549
			V43.78c0-0.771-0.27-1.429-0.81-1.969s-1.183-0.81-1.929-0.81c-0.771,0-1.427,0.27-1.967,0.81s-0.81,1.196-0.81,1.969v12.769
			H217.126z"/>
		<path fill="#C8252C" d="M258.709,42.2h-8.371v36.49h-11.032V42.2h-8.216V31.131h27.619V42.2z"/>
		<path fill="#C8252C" d="M271.207,73.252c0,1.543-0.54,2.854-1.62,3.935s-2.379,1.62-3.896,1.62c-1.543,0-2.854-0.54-3.935-1.62
			s-1.62-2.392-1.62-3.935c0-1.52,0.54-2.816,1.62-3.896s2.392-1.619,3.935-1.619c1.517,0,2.816,0.539,3.896,1.619
			S271.207,71.735,271.207,73.252z"/>
		<path fill="#C8252C" d="M290.494,22.257c3.703,0.129,6.853,1.53,9.451,4.204c2.571,2.675,3.857,5.877,3.857,9.604v5.671H292.77
			v-5.671c0-0.745-0.27-1.389-0.81-1.929s-1.196-0.812-1.967-0.812c-0.669,0-1.248,0.206-1.736,0.616
			c-0.077,0.053-0.142,0.116-0.193,0.193h-0.039c-0.052,0.052-0.103,0.115-0.154,0.191h-0.039c-0.052,0.077-0.09,0.143-0.116,0.192
			v0.038h-0.039c-0.052,0.077-0.09,0.143-0.116,0.193c0.025-0.025,0.025-0.014,0,0.037c-0.052,0.077-0.09,0.143-0.116,0.192
			l-0.039,0.115l-0.039,0.154l-0.039,0.153l-0.039,0.115c0,0.025-0.013,0.077-0.039,0.154v0.114c0,0.104,0,0.192,0,0.271v12.229
			c0,0.771,0.27,1.429,0.81,1.969c0.54,0.515,1.183,0.771,1.929,0.771l0.501,0.037c3.703,0.13,6.853,1.53,9.451,4.205
			c2.571,2.676,3.857,5.876,3.857,9.604c0,3.807-1.337,7.06-4.012,9.76c-2.7,2.7-5.966,4.05-9.798,4.05h-13.81V67.611h13.81
			c0.771,0,1.427-0.271,1.967-0.812s0.81-1.184,0.81-1.929c0-0.771-0.27-1.428-0.81-1.968s-1.196-0.812-1.967-0.812h-0.54
			c-3.678-0.154-6.802-1.556-9.374-4.204c-2.572-2.675-3.871-5.862-3.896-9.565V36.015c0.025-3.806,1.375-7.046,4.05-9.721
			c2.674-2.674,5.915-4.024,9.721-4.05h0.545V22.257z"/>
		<path fill="#C8252C" d="M320.543,29.932c3.806,0,7.059,1.352,9.759,4.051c2.7,2.7,4.05,5.967,4.05,9.799V78.69h-11.069V67.622
			h-5.518V78.69h-11.069V43.782c0-3.832,1.35-7.099,4.05-9.799C313.444,31.284,316.711,29.932,320.543,29.932z M323.282,56.549
			V43.78c0-0.771-0.271-1.429-0.812-1.969s-1.183-0.81-1.929-0.81c-0.771,0-1.427,0.27-1.967,0.81s-0.812,1.196-0.812,1.969v12.769
			H323.282z"/>
		<path fill="#C8252C" d="M372.349,31.129L361.586,78.69h-12.845l-10.646-47.562h11.071l6.327,28.698l4.821-28.698H372.349z"/>
		<path fill="#C8252C" d="M402.438,66.076c-0.025,3.807-1.39,7.047-4.09,9.722c-2.675,2.675-5.915,4.012-9.721,4.012
			c-3.78,0-7.021-1.337-9.721-4.012c-2.7-2.648-4.063-5.863-4.089-9.645V43.665c0.023-3.808,1.389-7.033,4.089-9.684
			c2.7-2.675,5.938-4.012,9.721-4.012c3.806,0,7.046,1.337,9.721,4.012c2.7,2.676,4.063,5.915,4.09,9.723V66.076z M391.404,43.782
			c-0.025-0.771-0.296-1.429-0.813-1.969c-0.539-0.54-1.193-0.81-1.967-0.81s-1.428,0.27-1.967,0.81
			c-0.541,0.54-0.813,1.196-0.813,1.969v22.22c0,0.771,0.271,1.427,0.813,1.967c0.539,0.54,1.193,0.812,1.967,0.812
			s1.428-0.271,1.967-0.812c0.541-0.54,0.813-1.195,0.813-1.967V43.782z"/>
		<path fill="#C8252C" d="M435.457,78.69h-11.033l-1.89-13.308l-0.038-0.502c-0.13-0.771-0.502-1.427-1.119-1.967
			s-1.299-0.813-2.045-0.813h-2.314v16.587h-11.068V31.128h13.887c3.78,0.024,7.021,1.376,9.721,4.05
			c2.676,2.675,4.014,5.915,4.014,9.721v3.436c0,3.42-1.119,6.416-3.355,8.986c1.825,2.265,2.933,4.759,3.316,7.482l0.039,0.31
			L435.457,78.69z M419.757,51.072c0.771-0.024,1.427-0.295,1.968-0.811c0.539-0.54,0.812-1.196,0.812-1.968v-3.355
			c0-0.745-0.271-1.389-0.812-1.929c-0.541-0.54-1.194-0.812-1.968-0.812h-2.739v8.872L419.757,51.072L419.757,51.072z"/>
		<path fill="#C8252C" d="M448.418,73.252c0,1.543-0.541,2.854-1.621,3.935s-2.379,1.62-3.896,1.62c-1.543,0-2.854-0.54-3.937-1.62
			s-1.62-2.392-1.62-3.935c0-1.52,0.54-2.816,1.62-3.896s2.394-1.619,3.937-1.619c1.517,0,2.813,0.539,3.896,1.619
			S448.418,71.735,448.418,73.252z"/>
	</g>
	<g>
		<path fill="#ED1C24" d="M23.702,98.186h401.263l58.22,0.64c0,0,33.261-7.676,114.503-7.676c81.243,0,109.393,15.993,116.43,20.473
			c7.037,4.478,10.875,8.954,0,37.104s-57.555,60.12-99.774,59.48c-42.221-0.642-47.999-6.387-94.698-37.73
			c-27.863-18.704-37.036-31.346-74.492-31.346s-421.446,0-421.446,0c-9.9,0-18-8.102-18-18v-4.942
			C5.702,106.287,13.802,98.186,23.702,98.186z"/>
		<path fill="#C8252C" d="M556.413,111.914c-1.577,4.69-6.819,9.411-11.65,10.489l-0.296,0.066
			c-4.831,1.078-12.832,1.823-17.779,1.657c0,0-11.503-0.39-41.503-7.29c-30-6.902-463.834-6.543-463.834-6.543
			c-4.95,0.005-9-2.709-9-6.03s4.05-6.038,9-6.038h454.135c4.948,0,13.046-0.185,17.989-0.409c0,0,49.77-2.268,60.072-5.151
			C563.851,89.779,556.413,111.914,556.413,111.914z"/>
		<path fill="#ED1A38" d="M489.736,110.248c-0.287,8.792,46.758,16.878,109.965,18.938c63.209,2.063,114.682-3.395,114.969-12.187
			c0.285-8.79-46.087-23.728-109.295-25.786C542.167,89.151,490.023,101.458,489.736,110.248z"/>
		<g>
			<g>
				<g>
					<defs>
						<path id="SVGID_1_" d="M489.736,110.248c-0.287,8.792,46.758,16.878,109.965,18.938
							c63.209,2.063,114.682-3.395,114.969-12.187c0.285-8.79,48.747-98.89-110.703-97.89
							C444.516,20.111,490.023,101.458,489.736,110.248z"/>
					</defs>
					<clipPath id="SVGID_2_">
						<use xlink:href="#SVGID_1_"  overflow="visible"/>
					</clipPath>
					<g clip-path="url(#SVGID_2_)">
						<path fill="#8B0304" d="M501.72,120.097c13.194,13.895,37.646,7.215,50.84-10.789c1.276-9.467,2.554-18.934,3.827-28.4
							c-15.181-20.713-43.313-28.396-58.494-12.41C499.168,85.697,500.443,102.896,501.72,120.097z"/>
						<g>
							<circle fill="#EF4130" cx="625.754" cy="65.622" r="12.298"/>
							<circle fill="#EF4130" cx="632.465" cy="71.186" r="12.298"/>
							<circle fill="#EF4130" cx="613.082" cy="68.819" r="12.298"/>
							<circle fill="#EF4130" cx="622.265" cy="78.055" r="12.298"/>
							<circle fill="#EF4130" cx="607.277" cy="82.218" r="12.298"/>
							<path fill="#EF4130" d="M632.236,70.747c0,0-2.375,17.609,12.172,35.688l-8.254,5.557
								c-11.281-20.274-28.492-24.698-28.492-24.698L632.236,70.747z"/>
						</g>
						<g>
							<circle fill="#EF4130" cx="704.246" cy="109.355" r="12.297"/>
							<circle fill="#EF4130" cx="700.49" cy="117.221" r="12.298"/>
							<circle fill="#EF4130" cx="698.049" cy="97.846" r="12.298"/>
							<circle fill="#EF4130" cx="691.338" cy="109.009" r="12.298"/>
							<circle fill="#EF4130" cx="683.641" cy="95.491" r="12.298"/>
							<path fill="#EF4130" d="M700.861,116.891c0,0-17.658,2-31.639,20.521l-7.402-6.646
								c16.904-15.893,16.992-33.662,16.992-33.662L700.861,116.891z"/>
						</g>
						<g>
							<path fill="#8E3F2B" d="M591.791,83.732c0.225-0.181,0.455-0.351,0.684-0.521l33.563,41.634
								c-0.217,0.188-0.433,0.377-0.656,0.558c-11.43,9.214-28.217,7.355-37.491-4.148
								C578.613,109.743,580.361,92.947,591.791,83.732z"/>
							<path fill="#F37053" d="M594.357,85.546l30.156,37.414c-10.135,7.738-24.771,5.892-32.973-4.283
								C583.342,108.504,584.643,93.807,594.357,85.546z"/>
						</g>
						<g>
							<path fill="#8E3F2B" d="M552.64,51.937c0.086-0.272,0.185-0.544,0.276-0.813l51.051,15.924
								c-0.076,0.274-0.146,0.554-0.232,0.828c-4.373,14.016-19.355,21.811-33.464,17.41
								C556.16,80.885,548.268,65.955,552.64,51.937z"/>
							<path fill="#F37053" d="M555.779,52.016l45.877,14.311c-4.117,12.07-17.309,18.68-29.783,14.785
								C559.399,77.221,552.305,64.288,555.779,52.016z"/>
						</g>
						<g>
							<path fill="#C4161C" d="M640.68,136.249c10.016,7.13,21.346,5.565,26.826-2.641c4.424-6.292,9.444-12.19,15.001-17.627
								c6.962-7.258,11.104-17.834,7.944-24.783c-1.629-3.308-3.256-6.613-4.885-9.923c-3.116-6.913-16.832-9.172-29.662-2.76
								c-9.493,4.911-18.555,10.701-27.063,17.306c-11.592,8.736-11.717,23.198-1.729,30.281
								C631.635,129.484,636.156,132.866,640.68,136.249z"/>
							<path fill="#8B0304" d="M672.174,111.708c1.497,1.136,3.514,0.861,4.427-0.52l0,0c0.915-1.383,0.526-3.255-0.802-4.264
								c-6.957-5.275-12.605-12.079-16.515-19.888c-0.749-1.49-2.519-2.219-4.044-1.57l0,0c-1.525,0.644-2.164,2.576-1.322,4.256
								C658.236,98.353,664.484,105.877,672.174,111.708z"/>
							<path fill="#8B0304" d="M663.226,121.798c1.632,1.372,3.819,1.353,4.821,0.035l0,0c1.004-1.32,0.546-3.359-0.957-4.626
								c-7.852-6.607-14.46-14.563-19.512-23.495c-0.97-1.711-2.891-2.536-4.371-1.792l0,0c-1.48,0.743-1.9,2.893-0.852,4.746
								C647.76,106.219,654.828,114.73,663.226,121.798z"/>
							<path fill="#8B0304" d="M652.854,131.235c1.916,1.203,4.174,0.851,4.924-0.626l0,0c0.752-1.479-0.069-3.409-1.735-4.458
								c-8.743-5.479-15.503-13.62-19.284-23.222c-0.725-1.83-2.473-2.992-4.063-2.523l0,0c-1.586,0.468-2.351,2.618-1.52,4.725
								C635.424,115.923,643.024,125.074,652.854,131.235z"/>
						</g>
						<g>
							<path fill="#C4161C" d="M567.199,71.774c-12.152-1.855-21.564,4.641-22.768,14.437c-1.115,7.608-2.941,15.14-5.457,22.492
								c-2.946,9.614-1.883,20.924,4.064,25.705c2.944,2.222,5.887,4.44,8.83,6.661c5.895,4.771,19.158,0.61,27.727-10.892
								c6.268-8.659,11.748-17.908,16.371-27.637c6.418-13.021,0.02-25.989-12.09-27.817
								C578.32,73.741,572.76,72.758,567.199,71.774z"/>
							<path fill="#8B0304" d="M550.127,107.867c-1.848-0.341-3.525,0.813-3.719,2.455l0,0c-0.195,1.646,0.994,3.146,2.635,3.446
								c8.588,1.577,16.696,5.108,23.701,10.321c1.34,0.993,3.245,0.846,4.318-0.419l0,0c1.069-1.263,0.771-3.274-0.736-4.396
								C568.584,113.515,559.619,109.611,550.127,107.867z"/>
							<path fill="#8B0304" d="M553.574,94.829c-2.073-0.491-4.021,0.513-4.322,2.14l0,0c-0.301,1.631,1.026,3.245,2.939,3.699
								c9.983,2.363,19.468,6.491,28,12.191c1.637,1.092,3.723,0.964,4.71-0.368l0,0c0.985-1.327,0.395-3.438-1.377-4.619
								C574.396,101.774,564.254,97.357,553.574,94.829z"/>
							<path fill="#8B0304" d="M558.586,81.731c-2.252-0.212-4.107,1.121-4.113,2.775l0,0c-0.006,1.659,1.6,3.013,3.559,3.199
								c10.271,0.957,19.975,5.181,27.675,12.052c1.472,1.308,3.555,1.559,4.765,0.423l0,0c1.207-1.131,0.919-3.396-0.771-4.9
								C581.043,87.556,570.137,82.807,558.586,81.731z"/>
						</g>
					</g>
				</g>
			</g>
		</g>
	</g>
	<g>
		<path fill="#ED1C24" d="M575.419,6.537c0,0,0.601,0.55,1.469,1.668c0.87,1.113,2.023,2.792,3.068,5.031
			c1.025,2.236,1.97,5.061,2.108,8.354c0.065,1.638-0.086,3.396-0.582,5.136c-0.479,1.745-1.334,3.449-2.461,4.926l-0.897,1.059
			l-0.978,0.965l-0.029,0.03l-0.017,0.015c-0.032,0.033,0.232-0.23,0.114-0.113l-0.051,0.053l-0.103,0.105l-0.201,0.21l-0.41,0.413
			l-0.82,0.82c-0.392,0.504-0.672,0.934-1.061,1.378c-0.264,0.542-0.612,1.052-0.849,1.595c-0.179,0.558-0.473,1.088-0.554,1.664
			c-0.067,0.285-0.133,0.566-0.198,0.846c-0.043,0.285-0.044,0.574-0.081,0.858c-0.134,1.141-0.008,2.278,0.128,3.346
			c0.084,0.533,0.21,1.043,0.307,1.541c0.138,0.492,0.269,0.959,0.391,1.398c0.285,0.875,0.555,1.654,0.816,2.284
			c0.27,0.624,0.476,1.136,0.64,1.47c0.162,0.34,0.249,0.521,0.249,0.521s-0.694-0.43-1.712-1.433
			c-0.505-0.503-1.103-1.144-1.708-1.954c-0.306-0.404-0.584-0.866-0.905-1.347c-0.278-0.502-0.567-1.04-0.844-1.622
			c-0.493-1.185-0.98-2.544-1.123-4.098c-0.041-0.387-0.093-0.78-0.102-1.183c0.02-0.406,0.038-0.816,0.059-1.231
			c-0.014-0.846,0.279-1.664,0.453-2.525c0.226-0.847,0.638-1.636,0.983-2.472c0.483-0.786,1.027-1.648,1.574-2.359l0.771-0.865
			l0.39-0.434l0.198-0.214l0.1-0.107l0.221-0.225l0.676-0.693l0.606-0.74c0.789-1,1.374-2.127,1.803-3.326
			c0.417-1.203,0.669-2.479,0.783-3.771c0.228-2.586-0.061-5.177-0.437-7.404c-0.371-2.238-0.858-4.126-1.203-5.46
			C575.649,7.314,575.419,6.537,575.419,6.537z"/>
	</g>
	<g>
		<path fill="#ED1C24" d="M619.652,2.463c0,0,0.668,0.508,1.651,1.576c0.976,1.07,2.27,2.704,3.437,4.948
			c1.153,2.238,2.229,5.108,2.44,8.542c0.104,1.708-0.027,3.563-0.542,5.409c-0.485,1.854-1.396,3.673-2.591,5.247l-0.956,1.121
			l-1.037,1.019l-0.031,0.032l-0.018,0.017c-0.045,0.044,0.328-0.325,0.165-0.163l-0.051,0.052l-0.104,0.104l-0.203,0.209
			l-0.414,0.409l-0.829,0.812c-0.232,0.251-0.302,0.419-0.471,0.624c-0.153,0.188-0.316,0.374-0.486,0.559
			c-0.247,0.484-0.583,0.938-0.821,1.42c-0.18,0.497-0.476,0.969-0.574,1.491c-0.076,0.259-0.149,0.516-0.226,0.77
			c-0.055,0.262-0.064,0.529-0.117,0.794c-0.189,1.059-0.136,2.151-0.072,3.195c0.047,0.523,0.141,1.027,0.198,1.524
			c0.102,0.496,0.198,0.967,0.289,1.409c0.213,0.892,0.438,1.686,0.643,2.347c0.214,0.654,0.378,1.194,0.516,1.549
			c0.133,0.363,0.204,0.557,0.204,0.557s-0.754-0.373-1.884-1.315c-0.563-0.473-1.203-1.099-1.881-1.894
			c-0.34-0.396-0.648-0.856-1.008-1.336c-0.314-0.503-0.638-1.046-0.951-1.638c-0.563-1.207-1.123-2.612-1.322-4.247
			c-0.056-0.407-0.117-0.823-0.138-1.249c0.011-0.431,0.021-0.867,0.03-1.308l0.026-0.672c0.019-0.225,0.078-0.443,0.117-0.667
			c0.097-0.449,0.191-0.902,0.288-1.359c0.226-0.906,0.648-1.753,1.014-2.646c0.502-0.855,1.099-1.805,1.677-2.557l0.763-0.875
			l0.385-0.438l0.197-0.214l0.099-0.107l0.269-0.273l0.615-0.639l0.55-0.677c0.722-0.903,1.253-1.917,1.67-3.006
			c0.401-1.096,0.673-2.276,0.825-3.497c0.299-2.445,0.143-4.989-0.104-7.215c-0.249-2.232-0.596-4.165-0.837-5.542
			C619.799,3.263,619.652,2.463,619.652,2.463z"/>
	</g>
	<g>
		<path fill="#ED1C24" d="M666.262,20.39c0,0,0.602,0.55,1.47,1.668c0.869,1.114,2.022,2.792,3.067,5.032
			c1.025,2.235,1.97,5.06,2.108,8.353c0.064,1.639-0.085,3.396-0.582,5.137c-0.479,1.744-1.334,3.448-2.46,4.926l-0.898,1.058
			l-0.977,0.965l-0.03,0.03l-0.016,0.015c-0.033,0.033,0.231-0.229,0.113-0.112l-0.051,0.053l-0.102,0.104l-0.202,0.21l-0.41,0.413
			l-0.82,0.82c-0.392,0.504-0.672,0.935-1.061,1.378c-0.263,0.543-0.612,1.052-0.848,1.595c-0.18,0.559-0.474,1.089-0.555,1.664
			c-0.065,0.285-0.133,0.567-0.198,0.848c-0.043,0.284-0.044,0.572-0.081,0.856c-0.134,1.143-0.008,2.279,0.129,3.348
			c0.085,0.532,0.21,1.043,0.306,1.541c0.138,0.491,0.269,0.959,0.391,1.397c0.285,0.875,0.556,1.655,0.816,2.285
			c0.27,0.624,0.476,1.135,0.64,1.469c0.162,0.34,0.249,0.521,0.249,0.521s-0.692-0.431-1.712-1.434
			c-0.505-0.503-1.102-1.143-1.708-1.954c-0.306-0.403-0.584-0.865-0.905-1.347c-0.277-0.502-0.567-1.04-0.845-1.622
			c-0.492-1.184-0.979-2.545-1.122-4.097c-0.041-0.387-0.093-0.781-0.102-1.185c0.02-0.404,0.039-0.815,0.059-1.23
			c-0.014-0.846,0.279-1.663,0.453-2.525c0.227-0.846,0.638-1.637,0.985-2.471c0.481-0.787,1.025-1.649,1.573-2.36l0.771-0.864
			l0.389-0.435l0.198-0.214l0.1-0.107l0.221-0.225l0.676-0.693l0.606-0.739c0.789-1,1.375-2.127,1.803-3.326
			c0.417-1.203,0.669-2.479,0.784-3.771c0.227-2.586-0.062-5.177-0.438-7.403c-0.371-2.238-0.858-4.126-1.203-5.46
			C666.492,21.17,666.262,20.39,666.262,20.39z"/>
	</g>
</g>
<g id="Layer_2" display="none">
	<path display="inline" fill="#C8252C" d="M652.502,14.684c1.923,2.729,3.425,5.745,4.771,8.816c1.348,3.08,2.414,6.278,3.377,9.519
		c1.848,6.499,2.899,13.246,3.264,20.039c0.702,13.602-1.477,27.349-5.883,40.214c-0.54,1.587-1.173,3.251-1.73,4.736
		c-0.545,1.467-1.078,2.993-1.584,4.496c-1.046,3.014-1.96,6.063-2.796,9.127c-1.674,6.134-2.906,12.369-3.618,18.678
		c-0.705,6.307-0.842,12.688-0.256,19.066c0.256,3.197,0.784,6.373,1.481,9.538c0.346,1.583,0.766,3.155,1.26,4.712
		c0.47,1.568,1.03,3.111,1.714,4.626c-2.209-2.513-3.882-5.479-5.332-8.522c-1.448-3.062-2.542-6.282-3.471-9.56
		c-1.776-6.577-2.512-13.438-2.461-20.27c0.048-6.839,0.934-13.65,2.392-20.301c0.729-3.328,1.644-6.606,2.636-9.854
		c0.517-1.626,1.059-3.208,1.641-4.836c0.583-1.6,1.098-3.021,1.612-4.551c4.12-12.029,6.715-24.543,7.345-37.287
		c0.328-6.37,0.151-12.79-0.524-19.212C655.67,27.436,654.477,21.019,652.502,14.684z"/>
	<path display="inline" fill="#C8252C" d="M647.872,0c-1.351,5.339-1.633,10.656-1.296,15.854
		c0.354,5.201,1.453,10.279,3.137,15.188c0.401,1.197,0.908,2.516,1.336,3.89c0.407,1.355,0.786,2.727,1.077,4.118
		c0.586,2.783,0.929,5.639,0.901,8.499c-0.027,2.858-0.395,5.728-1.211,8.456c-0.856,2.7-2.022,5.368-3.944,7.411
		c0.946-2.591,1.378-5.229,1.529-7.852c0.155-2.62,0.038-5.224-0.3-7.788c-0.342-2.567-0.878-5.103-1.582-7.596
		c-0.353-1.248-0.73-2.49-1.166-3.719c-0.401-1.215-0.892-2.43-1.37-3.804c-1.845-5.371-2.711-11.137-2.325-16.814
		c0.198-2.835,0.695-5.645,1.541-8.331C645.082,4.842,646.178,2.219,647.872,0z"/>
	<path display="inline" fill="#C8252C" d="M639.377,34.397c1.694,2.219,2.79,4.842,3.672,7.511c0.849,2.689,1.344,5.499,1.542,8.334
		c0.386,5.678-0.481,11.443-2.325,16.814c-0.479,1.374-0.969,2.588-1.369,3.803c-0.437,1.227-0.814,2.47-1.168,3.717
		c-0.703,2.495-1.239,5.029-1.58,7.596c-0.338,2.566-0.456,5.168-0.301,7.788c0.151,2.623,0.583,5.263,1.529,7.854
		c-1.922-2.043-3.088-4.711-3.944-7.41c-0.816-2.73-1.184-5.598-1.211-8.456c-0.025-2.862,0.315-5.715,0.901-8.499
		c0.291-1.396,0.67-2.763,1.077-4.12c0.428-1.375,0.935-2.691,1.336-3.888c1.684-4.907,2.782-9.988,3.137-15.188
		C641.009,45.054,640.729,39.736,639.377,34.397z"/>
</g>
</svg>
